<svg xmlns="http://www.w3.org/2000/svg" xmlns:xlink="http://www.w3.org/1999/xlink" width="500" zoomAndPan="magnify" viewBox="0 0 375 374.999991" height="500" preserveAspectRatio="xMidYMid meet" version="1.0"><defs><filter x="0%" y="0%" width="100%" height="100%" id="e43426e493"><feColorMatrix values="0 0 0 0 1 0 0 0 0 1 0 0 0 0 1 0 0 0 1 0" color-interpolation-filters="sRGB"/></filter><g/><clipPath id="94ba1cce1d"><path d="M 12 22.871094 L 53.761719 22.871094 L 53.761719 86 L 12 86 Z M 12 22.871094 " clip-rule="nonzero"/></clipPath><clipPath id="216c360fcc"><path d="M 32.894531 61.972656 L 22.140625 22.972656 L 12.191406 22.972656 L 12.191406 85.894531 L 20.132812 85.894531 L 20.132812 39.960938 L 28.773438 72.21875 L 37.015625 72.21875 L 45.65625 39.859375 L 45.65625 85.894531 L 53.597656 85.894531 L 53.597656 22.972656 L 43.644531 22.972656 Z M 32.894531 61.972656 " clip-rule="nonzero"/></clipPath><clipPath id="9c642ddc3a"><path d="M 0 0.871094 L 41.761719 0.871094 L 41.761719 64 L 0 64 Z M 0 0.871094 " clip-rule="nonzero"/></clipPath><clipPath id="8a69737bf2"><path d="M 20.894531 39.972656 L 10.140625 0.972656 L 0.191406 0.972656 L 0.191406 63.894531 L 8.132812 63.894531 L 8.132812 17.960938 L 16.773438 50.21875 L 25.015625 50.21875 L 33.65625 17.859375 L 33.65625 63.894531 L 41.597656 63.894531 L 41.597656 0.972656 L 31.644531 0.972656 Z M 20.894531 39.972656 " clip-rule="nonzero"/></clipPath><clipPath id="8222fbd510"><rect x="0" width="42" y="0" height="64"/></clipPath><clipPath id="fe2d215fe7"><path d="M 66.558594 22.871094 L 96.855469 22.871094 L 96.855469 86 L 66.558594 86 Z M 66.558594 22.871094 " clip-rule="nonzero"/></clipPath><clipPath id="fc9a1221f6"><path d="M 87.164062 22.972656 L 76.015625 22.972656 C 72.730469 22.972656 70.335938 23.730469 68.832031 25.234375 C 67.328125 26.734375 66.570312 28.941406 66.570312 31.816406 L 66.570312 77.050781 C 66.570312 79.925781 67.328125 82.121094 68.832031 83.632812 C 70.335938 85.144531 72.730469 85.894531 76.015625 85.894531 L 87.171875 85.894531 C 90.457031 85.894531 92.851562 85.136719 94.355469 83.632812 C 95.859375 82.128906 96.617188 79.9375 96.617188 77.050781 L 96.617188 31.816406 C 96.617188 28.941406 95.859375 26.746094 94.355469 25.234375 C 92.851562 23.71875 90.457031 22.972656 87.171875 22.972656 Z M 87.46875 66.796875 L 87.46875 75.640625 C 87.46875 76.78125 87.285156 77.546875 86.914062 77.953125 C 86.546875 78.359375 85.726562 78.554688 84.453125 78.554688 L 78.726562 78.554688 C 77.519531 78.554688 76.714844 78.351562 76.308594 77.953125 C 75.902344 77.558594 75.710938 76.78125 75.710938 75.640625 L 75.710938 33.226562 C 75.710938 32.019531 75.914062 31.234375 76.308594 30.867188 C 76.707031 30.5 77.519531 30.3125 78.726562 30.3125 L 84.453125 30.3125 C 85.726562 30.3125 86.546875 30.5 86.914062 30.867188 C 87.285156 31.234375 87.46875 32.019531 87.46875 33.226562 Z M 87.46875 66.796875 " clip-rule="nonzero"/></clipPath><clipPath id="60e7a0d66b"><path d="M 0.558594 0.871094 L 30.71875 0.871094 L 30.71875 64 L 0.558594 64 Z M 0.558594 0.871094 " clip-rule="nonzero"/></clipPath><clipPath id="f78ec30be7"><path d="M 21.164062 0.972656 L 10.015625 0.972656 C 6.730469 0.972656 4.335938 1.730469 2.832031 3.234375 C 1.328125 4.734375 0.570312 6.941406 0.570312 9.816406 L 0.570312 55.050781 C 0.570312 57.925781 1.328125 60.121094 2.832031 61.632812 C 4.335938 63.144531 6.730469 63.894531 10.015625 63.894531 L 21.171875 63.894531 C 24.457031 63.894531 26.851562 63.136719 28.355469 61.632812 C 29.859375 60.128906 30.617188 57.9375 30.617188 55.050781 L 30.617188 9.816406 C 30.617188 6.941406 29.859375 4.746094 28.355469 3.234375 C 26.851562 1.71875 24.457031 0.972656 21.171875 0.972656 Z M 21.46875 44.796875 L 21.46875 53.640625 C 21.46875 54.78125 21.285156 55.546875 20.914062 55.953125 C 20.546875 56.359375 19.726562 56.554688 18.453125 56.554688 L 12.726562 56.554688 C 11.519531 56.554688 10.714844 56.351562 10.308594 55.953125 C 9.902344 55.558594 9.710938 54.78125 9.710938 53.640625 L 9.710938 11.226562 C 9.710938 10.019531 9.914062 9.234375 10.308594 8.867188 C 10.707031 8.5 11.519531 8.3125 12.726562 8.3125 L 18.453125 8.3125 C 19.726562 8.3125 20.546875 8.5 20.914062 8.867188 C 21.285156 9.234375 21.46875 10.019531 21.46875 11.226562 Z M 21.46875 44.796875 " clip-rule="nonzero"/></clipPath><clipPath id="958a97d42e"><rect x="0" width="31" y="0" height="64"/></clipPath><clipPath id="fd3e1a2c61"><path d="M 109.226562 22.871094 L 142.933594 22.871094 L 142.933594 86 L 109.226562 86 Z M 109.226562 22.871094 " clip-rule="nonzero"/></clipPath><clipPath id="60cc7ed533"><path d="M 137.367188 58.199219 C 138.871094 56.699219 139.625 54.464844 139.625 51.515625 L 139.625 31.816406 C 139.625 28.941406 138.871094 26.746094 137.367188 25.234375 C 135.863281 23.71875 133.464844 22.972656 130.183594 22.972656 L 109.582031 22.972656 L 109.582031 85.894531 L 118.628906 85.894531 L 118.628906 60.460938 L 123.589844 60.460938 L 132.996094 85.894531 L 142.84375 85.894531 L 132.828125 60.265625 C 134.785156 59.953125 136.304688 59.269531 137.367188 58.199219 Z M 118.617188 30.3125 L 127.460938 30.3125 C 128.734375 30.3125 129.554688 30.5 129.925781 30.867188 C 130.292969 31.234375 130.476562 32.019531 130.476562 33.226562 L 130.476562 50.316406 C 130.476562 51.460938 130.292969 52.226562 129.925781 52.628906 C 129.554688 53.035156 128.734375 53.230469 127.460938 53.230469 L 118.617188 53.230469 Z M 118.617188 30.3125 " clip-rule="nonzero"/></clipPath><clipPath id="2cd9d083de"><path d="M 0.441406 0.871094 L 33.933594 0.871094 L 33.933594 64 L 0.441406 64 Z M 0.441406 0.871094 " clip-rule="nonzero"/></clipPath><clipPath id="c4d1729130"><path d="M 28.367188 36.199219 C 29.871094 34.699219 30.625 32.464844 30.625 29.515625 L 30.625 9.816406 C 30.625 6.941406 29.871094 4.746094 28.367188 3.234375 C 26.863281 1.71875 24.464844 0.972656 21.183594 0.972656 L 0.582031 0.972656 L 0.582031 63.894531 L 9.628906 63.894531 L 9.628906 38.460938 L 14.589844 38.460938 L 23.996094 63.894531 L 33.84375 63.894531 L 23.828125 38.265625 C 25.785156 37.953125 27.304688 37.269531 28.367188 36.199219 Z M 9.617188 8.3125 L 18.460938 8.3125 C 19.734375 8.3125 20.554688 8.5 20.925781 8.867188 C 21.292969 9.234375 21.476562 10.019531 21.476562 11.226562 L 21.476562 28.316406 C 21.476562 29.460938 21.292969 30.226562 20.925781 30.628906 C 20.554688 31.035156 19.734375 31.230469 18.460938 31.230469 L 9.617188 31.230469 Z M 9.617188 8.3125 " clip-rule="nonzero"/></clipPath><clipPath id="26c6a2f8be"><rect x="0" width="34" y="0" height="64"/></clipPath><clipPath id="2ade9f69c3"><path d="M 169.386719 22.871094 L 199 22.871094 L 199 86 L 169.386719 86 Z M 169.386719 22.871094 " clip-rule="nonzero"/></clipPath><clipPath id="2354f8d7dc"><path d="M 189.480469 22.972656 L 178.816406 22.972656 C 175.601562 22.972656 173.238281 23.730469 171.734375 25.234375 C 170.234375 26.734375 169.476562 28.941406 169.476562 31.816406 L 169.476562 77.050781 C 169.476562 80 170.234375 82.222656 171.734375 83.734375 C 173.238281 85.246094 175.609375 85.996094 178.816406 85.996094 L 189.46875 85.996094 C 192.753906 85.996094 195.148438 85.238281 196.652344 83.734375 C 198.15625 82.230469 198.914062 80 198.914062 77.050781 L 198.914062 66.390625 L 189.679688 66.390625 L 189.679688 75.941406 C 189.679688 77.085938 189.496094 77.851562 189.128906 78.257812 C 188.757812 78.664062 187.976562 78.855469 186.765625 78.855469 L 181.640625 78.855469 C 180.433594 78.855469 179.628906 78.652344 179.222656 78.257812 C 178.816406 77.859375 178.625 77.085938 178.625 75.941406 L 178.625 33.023438 C 178.625 31.816406 178.828125 31.035156 179.222656 30.664062 C 179.621094 30.296875 180.433594 30.109375 181.640625 30.109375 L 186.765625 30.109375 C 187.976562 30.109375 188.757812 30.296875 189.128906 30.664062 C 189.496094 31.035156 189.679688 31.816406 189.679688 33.023438 L 189.679688 42.671875 L 198.929688 42.671875 L 198.929688 31.816406 C 198.929688 28.941406 198.175781 26.746094 196.671875 25.234375 C 195.167969 23.71875 192.769531 22.972656 189.488281 22.972656 Z M 189.480469 22.972656 " clip-rule="nonzero"/></clipPath><clipPath id="224a3bf319"><path d="M 0.441406 0.871094 L 29.960938 0.871094 L 29.960938 64 L 0.441406 64 Z M 0.441406 0.871094 " clip-rule="nonzero"/></clipPath><clipPath id="e51b10d2b8"><path d="M 20.480469 0.972656 L 9.816406 0.972656 C 6.601562 0.972656 4.238281 1.730469 2.734375 3.234375 C 1.234375 4.734375 0.476562 6.941406 0.476562 9.816406 L 0.476562 55.050781 C 0.476562 58 1.234375 60.222656 2.734375 61.734375 C 4.238281 63.246094 6.609375 63.996094 9.816406 63.996094 L 20.46875 63.996094 C 23.753906 63.996094 26.148438 63.238281 27.652344 61.734375 C 29.15625 60.230469 29.914062 58 29.914062 55.050781 L 29.914062 44.390625 L 20.679688 44.390625 L 20.679688 53.941406 C 20.679688 55.085938 20.496094 55.851562 20.128906 56.257812 C 19.757812 56.664062 18.976562 56.855469 17.765625 56.855469 L 12.640625 56.855469 C 11.433594 56.855469 10.628906 56.652344 10.222656 56.257812 C 9.816406 55.859375 9.625 55.085938 9.625 53.941406 L 9.625 11.023438 C 9.625 9.816406 9.828125 9.035156 10.222656 8.664062 C 10.621094 8.296875 11.433594 8.109375 12.640625 8.109375 L 17.765625 8.109375 C 18.976562 8.109375 19.757812 8.296875 20.128906 8.664062 C 20.496094 9.035156 20.679688 9.816406 20.679688 11.023438 L 20.679688 20.671875 L 29.929688 20.671875 L 29.929688 9.816406 C 29.929688 6.941406 29.175781 4.746094 27.671875 3.234375 C 26.167969 1.71875 23.769531 0.972656 20.488281 0.972656 Z M 20.480469 0.972656 " clip-rule="nonzero"/></clipPath><clipPath id="81018d80cf"><rect x="0" width="30" y="0" height="64"/></clipPath><clipPath id="108e9e058b"><path d="M 206 22.871094 L 241.921875 22.871094 L 241.921875 86 L 206 86 Z M 206 22.871094 " clip-rule="nonzero"/></clipPath><clipPath id="92a594f399"><path d="M 232.296875 22.972656 L 224.050781 57.648438 L 215.308594 22.972656 L 206.058594 22.972656 L 219.523438 66.03125 L 219.523438 85.894531 L 228.671875 85.894531 L 228.671875 65.984375 L 241.535156 22.972656 Z M 232.296875 22.972656 " clip-rule="nonzero"/></clipPath><clipPath id="e47fd6af40"><path d="M 0 0.871094 L 35.679688 0.871094 L 35.679688 64 L 0 64 Z M 0 0.871094 " clip-rule="nonzero"/></clipPath><clipPath id="9f9e9d7266"><path d="M 26.296875 0.972656 L 18.050781 35.648438 L 9.308594 0.972656 L 0.0585938 0.972656 L 13.523438 44.03125 L 13.523438 63.894531 L 22.671875 63.894531 L 22.671875 43.984375 L 35.535156 0.972656 Z M 26.296875 0.972656 " clip-rule="nonzero"/></clipPath><clipPath id="09ad3e818f"><rect x="0" width="36" y="0" height="64"/></clipPath><clipPath id="69173766e1"><path d="M 250.027344 22.871094 L 281.601562 22.871094 L 281.601562 86 L 250.027344 86 Z M 250.027344 22.871094 " clip-rule="nonzero"/></clipPath><clipPath id="15d49b29ce"><path d="M 271.984375 22.972656 L 250.175781 22.972656 L 250.175781 85.894531 L 271.984375 85.894531 C 275.269531 85.894531 277.664062 85.136719 279.167969 83.632812 C 280.671875 82.128906 281.429688 79.9375 281.429688 77.050781 L 281.429688 59.859375 C 281.429688 58.183594 281.097656 56.882812 280.421875 55.941406 C 279.75 55 278.746094 54.363281 277.40625 54.03125 C 278.746094 53.699219 279.75 52.988281 280.421875 51.921875 C 281.097656 50.851562 281.429688 49.476562 281.429688 47.796875 L 281.429688 31.816406 C 281.429688 28.941406 280.671875 26.746094 279.167969 25.234375 C 277.664062 23.71875 275.269531 22.972656 271.984375 22.972656 Z M 272.289062 75.839844 C 272.289062 76.984375 272.105469 77.75 271.734375 78.15625 C 271.367188 78.5625 270.546875 78.753906 269.273438 78.753906 L 259.324219 78.753906 L 259.324219 57.445312 L 269.273438 57.445312 C 270.546875 57.445312 271.367188 57.628906 271.734375 57.996094 C 272.105469 58.367188 272.289062 59.148438 272.289062 60.359375 Z M 272.289062 47.402344 C 272.289062 48.546875 272.105469 49.3125 271.734375 49.714844 C 271.367188 50.121094 270.546875 50.316406 269.273438 50.316406 L 259.324219 50.316406 L 259.324219 30.109375 L 269.273438 30.109375 C 270.546875 30.109375 271.367188 30.296875 271.734375 30.664062 C 272.105469 31.035156 272.289062 31.816406 272.289062 33.023438 Z M 272.289062 47.402344 " clip-rule="nonzero"/></clipPath><clipPath id="c4925f618d"><path d="M 0.078125 0.871094 L 31.519531 0.871094 L 31.519531 64 L 0.078125 64 Z M 0.078125 0.871094 " clip-rule="nonzero"/></clipPath><clipPath id="b748691c8f"><path d="M 21.984375 0.972656 L 0.175781 0.972656 L 0.175781 63.894531 L 21.984375 63.894531 C 25.269531 63.894531 27.664062 63.136719 29.167969 61.632812 C 30.671875 60.128906 31.429688 57.9375 31.429688 55.050781 L 31.429688 37.859375 C 31.429688 36.183594 31.097656 34.882812 30.421875 33.941406 C 29.75 33 28.746094 32.363281 27.40625 32.03125 C 28.746094 31.699219 29.75 30.988281 30.421875 29.921875 C 31.097656 28.851562 31.429688 27.476562 31.429688 25.796875 L 31.429688 9.816406 C 31.429688 6.941406 30.671875 4.746094 29.167969 3.234375 C 27.664062 1.71875 25.269531 0.972656 21.984375 0.972656 Z M 22.289062 53.839844 C 22.289062 54.984375 22.105469 55.75 21.734375 56.15625 C 21.367188 56.5625 20.546875 56.753906 19.273438 56.753906 L 9.324219 56.753906 L 9.324219 35.445312 L 19.273438 35.445312 C 20.546875 35.445312 21.367188 35.628906 21.734375 35.996094 C 22.105469 36.367188 22.289062 37.148438 22.289062 38.359375 Z M 22.289062 25.402344 C 22.289062 26.546875 22.105469 27.3125 21.734375 27.714844 C 21.367188 28.121094 20.546875 28.316406 19.273438 28.316406 L 9.324219 28.316406 L 9.324219 8.109375 L 19.273438 8.109375 C 20.546875 8.109375 21.367188 8.296875 21.734375 8.664062 C 22.105469 9.035156 22.289062 9.816406 22.289062 11.023438 Z M 22.289062 25.402344 " clip-rule="nonzero"/></clipPath><clipPath id="269aa10287"><rect x="0" width="32" y="0" height="64"/></clipPath><clipPath id="3e523fcf92"><path d="M 294.300781 22.972656 L 320.933594 22.972656 L 320.933594 30.3125 L 294.300781 30.3125 Z M 294.300781 30.3125 L 303.449219 30.3125 L 303.449219 49.707031 L 294.300781 49.707031 Z M 294.300781 49.707031 L 317.917969 49.707031 L 317.917969 57.046875 L 294.300781 57.046875 Z M 294.300781 57.046875 L 303.449219 57.046875 L 303.449219 78.554688 L 294.300781 78.554688 Z M 294.300781 78.554688 L 321.644531 78.554688 L 321.644531 85.894531 L 294.300781 85.894531 Z M 294.300781 78.554688 " clip-rule="nonzero"/></clipPath><clipPath id="d7d99384aa"><path d="M 0.300781 0.972656 L 26.933594 0.972656 L 26.933594 8.3125 L 0.300781 8.3125 Z M 0.300781 8.3125 L 9.449219 8.3125 L 9.449219 27.707031 L 0.300781 27.707031 Z M 0.300781 27.707031 L 23.917969 27.707031 L 23.917969 35.046875 L 0.300781 35.046875 Z M 0.300781 35.046875 L 9.449219 35.046875 L 9.449219 56.554688 L 0.300781 56.554688 Z M 0.300781 56.554688 L 27.644531 56.554688 L 27.644531 63.894531 L 0.300781 63.894531 Z M 0.300781 56.554688 " clip-rule="nonzero"/></clipPath><clipPath id="5ec3117f84"><rect x="0" width="28" y="0" height="64"/></clipPath><clipPath id="645bd7e978"><path d="M 331.523438 22.871094 L 365.230469 22.871094 L 365.230469 86 L 331.523438 86 Z M 331.523438 22.871094 " clip-rule="nonzero"/></clipPath><clipPath id="08d9647871"><path d="M 355.203125 85.894531 L 365.050781 85.894531 L 355.035156 60.265625 C 356.992188 59.953125 358.511719 59.269531 359.574219 58.199219 C 361.078125 56.699219 361.832031 54.464844 361.832031 51.515625 L 361.832031 31.816406 C 361.832031 28.941406 361.078125 26.746094 359.574219 25.234375 C 358.070312 23.71875 355.671875 22.972656 352.390625 22.972656 L 331.789062 22.972656 L 331.789062 85.894531 L 340.835938 85.894531 L 340.835938 60.460938 L 345.796875 60.460938 Z M 340.835938 30.3125 L 349.679688 30.3125 C 350.949219 30.3125 351.773438 30.5 352.140625 30.867188 C 352.507812 31.234375 352.695312 32.019531 352.695312 33.226562 L 352.695312 50.316406 C 352.695312 51.460938 352.507812 52.226562 352.140625 52.628906 C 351.773438 53.035156 350.949219 53.230469 349.679688 53.230469 L 340.835938 53.230469 Z M 340.835938 30.3125 " clip-rule="nonzero"/></clipPath><clipPath id="ac20d436cd"><path d="M 0.679688 0.871094 L 34.230469 0.871094 L 34.230469 64 L 0.679688 64 Z M 0.679688 0.871094 " clip-rule="nonzero"/></clipPath><clipPath id="24cf680271"><path d="M 24.203125 63.894531 L 34.050781 63.894531 L 24.035156 38.265625 C 25.992188 37.953125 27.511719 37.269531 28.574219 36.199219 C 30.078125 34.699219 30.832031 32.464844 30.832031 29.515625 L 30.832031 9.816406 C 30.832031 6.941406 30.078125 4.746094 28.574219 3.234375 C 27.070312 1.71875 24.671875 0.972656 21.390625 0.972656 L 0.789062 0.972656 L 0.789062 63.894531 L 9.835938 63.894531 L 9.835938 38.460938 L 14.796875 38.460938 Z M 9.835938 8.3125 L 18.679688 8.3125 C 19.949219 8.3125 20.773438 8.5 21.140625 8.867188 C 21.507812 9.234375 21.695312 10.019531 21.695312 11.226562 L 21.695312 28.316406 C 21.695312 29.460938 21.507812 30.226562 21.140625 30.628906 C 20.773438 31.035156 19.949219 31.230469 18.679688 31.230469 L 9.835938 31.230469 Z M 9.835938 8.3125 " clip-rule="nonzero"/></clipPath><clipPath id="5a7c7cdde0"><rect x="0" width="35" y="0" height="64"/></clipPath><clipPath id="f2af14ce14"><path d="M 12 95 L 375 95 L 375 131.480469 L 12 131.480469 Z M 12 95 " clip-rule="nonzero"/></clipPath><mask id="fc1de5d1ec"><g filter="url(#e43426e493)"><rect x="-82.5" width="540" fill="#000000" y="-185.499998" height="539.999987" fill-opacity="0.5"/></g></mask><clipPath id="12feb96994"><rect x="0" width="363" y="0" height="37"/></clipPath><clipPath id="87157a6543"><rect x="0" width="375" y="0" height="132"/></clipPath></defs><g transform="matrix(1, 0, 0, 1, 0, 103)"><g clip-path="url(#87157a6543)"><g clip-path="url(#94ba1cce1d)"><g clip-path="url(#216c360fcc)"><g transform="matrix(1, 0, 0, 1, 12, 22)"><g clip-path="url(#8222fbd510)"><g clip-path="url(#9c642ddc3a)"><g clip-path="url(#8a69737bf2)"><rect x="-148.5" width="648" fill="#ffffff" y="-261.499997" height="647.999984" fill-opacity="1"/></g></g></g></g></g></g><g clip-path="url(#fe2d215fe7)"><g clip-path="url(#fc9a1221f6)"><g transform="matrix(1, 0, 0, 1, 66, 22)"><g clip-path="url(#958a97d42e)"><g clip-path="url(#60e7a0d66b)"><g clip-path="url(#f78ec30be7)"><rect x="-202.5" width="648" fill="#ffffff" y="-261.499997" height="647.999984" fill-opacity="1"/></g></g></g></g></g></g><g clip-path="url(#fd3e1a2c61)"><g clip-path="url(#60cc7ed533)"><g transform="matrix(1, 0, 0, 1, 109, 22)"><g clip-path="url(#26c6a2f8be)"><g clip-path="url(#2cd9d083de)"><g clip-path="url(#c4d1729130)"><rect x="-245.5" width="648" fill="#ffffff" y="-261.499997" height="647.999984" fill-opacity="1"/></g></g></g></g></g></g><g clip-path="url(#2ade9f69c3)"><g clip-path="url(#2354f8d7dc)"><g transform="matrix(1, 0, 0, 1, 169, 22)"><g clip-path="url(#81018d80cf)"><g clip-path="url(#224a3bf319)"><g clip-path="url(#e51b10d2b8)"><rect x="-305.5" width="648" fill="#ffffff" y="-261.499997" height="647.999984" fill-opacity="1"/></g></g></g></g></g></g><g clip-path="url(#108e9e058b)"><g clip-path="url(#92a594f399)"><g transform="matrix(1, 0, 0, 1, 206, 22)"><g clip-path="url(#09ad3e818f)"><g clip-path="url(#e47fd6af40)"><g clip-path="url(#9f9e9d7266)"><rect x="-342.5" width="648" fill="#ffffff" y="-261.499997" height="647.999984" fill-opacity="1"/></g></g></g></g></g></g><g clip-path="url(#69173766e1)"><g clip-path="url(#15d49b29ce)"><g transform="matrix(1, 0, 0, 1, 250, 22)"><g clip-path="url(#269aa10287)"><g clip-path="url(#c4925f618d)"><g clip-path="url(#b748691c8f)"><rect x="-386.5" width="648" fill="#ffffff" y="-261.499997" height="647.999984" fill-opacity="1"/></g></g></g></g></g></g><g clip-path="url(#3e523fcf92)"><g transform="matrix(1, 0, 0, 1, 294, 22)"><g clip-path="url(#5ec3117f84)"><g clip-path="url(#d7d99384aa)"><rect x="-430.5" width="648" fill="#ffffff" y="-261.499997" height="647.999984" fill-opacity="1"/></g></g></g></g><g clip-path="url(#645bd7e978)"><g clip-path="url(#08d9647871)"><g transform="matrix(1, 0, 0, 1, 331, 22)"><g clip-path="url(#5a7c7cdde0)"><g clip-path="url(#ac20d436cd)"><g clip-path="url(#24cf680271)"><rect x="-467.5" width="648" fill="#ffffff" y="-261.499997" height="647.999984" fill-opacity="1"/></g></g></g></g></g></g><g clip-path="url(#f2af14ce14)"><g mask="url(#fc1de5d1ec)"><g transform="matrix(1, 0, 0, 1, 12, 95)"><g clip-path="url(#12feb96994)"><g fill="#ffffff" fill-opacity="1"><g transform="translate(0.314367, 29.335947)"><g><path d="M 20.265625 -19.578125 C 20.734375 -19.578125 20.96875 -19.3125 20.96875 -18.78125 L 20.96875 -0.796875 C 20.96875 -0.265625 20.703125 0 20.171875 0 C 19.648438 0 19.390625 -0.265625 19.390625 -0.796875 L 19.390625 -16.296875 L 12.828125 -6.328125 C 12.617188 -5.972656 12.300781 -5.796875 11.875 -5.796875 C 11.507812 -5.796875 11.21875 -5.972656 11 -6.328125 L 4.40625 -16.375 L 4.40625 -0.796875 C 4.40625 -0.265625 4.140625 0 3.609375 0 C 3.085938 0 2.828125 -0.265625 2.828125 -0.796875 L 2.828125 -18.78125 C 2.828125 -19.3125 3.085938 -19.578125 3.609375 -19.578125 C 4.015625 -19.578125 4.320312 -19.40625 4.53125 -19.0625 L 11.9375 -7.71875 L 19.328125 -19.0625 C 19.523438 -19.40625 19.835938 -19.578125 20.265625 -19.578125 Z M 20.265625 -19.578125 "/></g></g></g><g fill="#ffffff" fill-opacity="1"><g transform="translate(31.889121, 29.335947)"><g><path d="M 17.78125 -1.125 C 17.84375 -0.976562 17.875 -0.847656 17.875 -0.734375 C 17.875 -0.460938 17.703125 -0.25 17.359375 -0.09375 C 17.234375 -0.03125 17.097656 0 16.953125 0 C 16.671875 0 16.46875 -0.160156 16.34375 -0.484375 L 14.3125 -5.28125 L 4.375 -5.28125 L 2.34375 -0.484375 C 2.195312 -0.160156 1.972656 0 1.671875 0 C 1.566406 0 1.4375 -0.03125 1.28125 -0.09375 C 0.957031 -0.21875 0.796875 -0.441406 0.796875 -0.765625 C 0.796875 -0.921875 0.8125 -1.039062 0.84375 -1.125 L 8.390625 -18.96875 C 8.546875 -19.375 8.847656 -19.578125 9.296875 -19.578125 L 9.359375 -19.578125 C 9.765625 -19.578125 10.054688 -19.375 10.234375 -18.96875 Z M 5.015625 -6.875 L 13.640625 -6.875 L 9.328125 -17.078125 Z M 5.015625 -6.875 "/></g></g></g><g fill="#ffffff" fill-opacity="1"><g transform="translate(58.297818, 29.335947)"><g><path d="M 7.84375 -0.03125 C 6.039062 -0.03125 4.703125 -0.429688 3.828125 -1.234375 C 2.953125 -2.035156 2.488281 -3.304688 2.4375 -5.046875 C 2.414062 -5.285156 2.476562 -5.476562 2.625 -5.625 C 2.78125 -5.78125 2.976562 -5.859375 3.21875 -5.859375 C 3.445312 -5.859375 3.628906 -5.785156 3.765625 -5.640625 C 3.910156 -5.503906 3.992188 -5.316406 4.015625 -5.078125 C 4.054688 -3.773438 4.359375 -2.867188 4.921875 -2.359375 C 5.492188 -1.859375 6.46875 -1.609375 7.84375 -1.609375 L 12.21875 -1.609375 C 13.675781 -1.609375 14.679688 -1.882812 15.234375 -2.4375 C 15.796875 -3 16.078125 -4 16.078125 -5.4375 C 16.078125 -6.875 15.789062 -7.867188 15.21875 -8.421875 C 14.65625 -8.984375 13.65625 -9.265625 12.21875 -9.265625 L 8.046875 -9.265625 C 6.265625 -9.265625 4.957031 -9.679688 4.125 -10.515625 C 3.300781 -11.347656 2.890625 -12.65625 2.890625 -14.4375 C 2.890625 -16.195312 3.300781 -17.492188 4.125 -18.328125 C 4.957031 -19.160156 6.253906 -19.578125 8.015625 -19.578125 L 12.3125 -19.578125 C 14.007812 -19.578125 15.269531 -19.191406 16.09375 -18.421875 C 16.914062 -17.648438 17.351562 -16.453125 17.40625 -14.828125 C 17.425781 -14.585938 17.359375 -14.394531 17.203125 -14.25 C 17.054688 -14.113281 16.863281 -14.046875 16.625 -14.046875 C 16.40625 -14.046875 16.222656 -14.113281 16.078125 -14.25 C 15.929688 -14.394531 15.847656 -14.578125 15.828125 -14.796875 C 15.804688 -15.972656 15.523438 -16.796875 14.984375 -17.265625 C 14.453125 -17.742188 13.5625 -17.984375 12.3125 -17.984375 L 8.015625 -17.984375 C 6.703125 -17.984375 5.78125 -17.71875 5.25 -17.1875 C 4.726562 -16.664062 4.46875 -15.75 4.46875 -14.4375 C 4.46875 -13.101562 4.726562 -12.171875 5.25 -11.640625 C 5.78125 -11.109375 6.710938 -10.84375 8.046875 -10.84375 L 12.21875 -10.84375 C 14.101562 -10.84375 15.476562 -10.40625 16.34375 -9.53125 C 17.21875 -8.664062 17.65625 -7.300781 17.65625 -5.4375 C 17.65625 -3.570312 17.21875 -2.203125 16.34375 -1.328125 C 15.476562 -0.460938 14.101562 -0.03125 12.21875 -0.03125 Z M 7.84375 -0.03125 "/></g></g></g><g fill="#ffffff" fill-opacity="1"><g transform="translate(86.165164, 29.335947)"><g><path d="M 8.59375 0.03125 C 8.375 0.03125 8.1875 -0.0390625 8.03125 -0.1875 C 7.882812 -0.34375 7.8125 -0.535156 7.8125 -0.765625 L 7.8125 -17.984375 L 1.34375 -17.984375 C 1.113281 -17.984375 0.921875 -18.0625 0.765625 -18.21875 C 0.617188 -18.375 0.546875 -18.5625 0.546875 -18.78125 C 0.546875 -19.019531 0.617188 -19.210938 0.765625 -19.359375 C 0.921875 -19.503906 1.113281 -19.578125 1.34375 -19.578125 L 15.859375 -19.578125 C 16.109375 -19.578125 16.300781 -19.503906 16.4375 -19.359375 C 16.582031 -19.210938 16.65625 -19.019531 16.65625 -18.78125 C 16.65625 -18.5625 16.582031 -18.375 16.4375 -18.21875 C 16.300781 -18.0625 16.109375 -17.984375 15.859375 -17.984375 L 9.390625 -17.984375 L 9.390625 -0.765625 C 9.390625 -0.535156 9.316406 -0.34375 9.171875 -0.1875 C 9.035156 -0.0390625 8.84375 0.03125 8.59375 0.03125 Z M 8.59375 0.03125 "/></g></g></g><g fill="#ffffff" fill-opacity="1"><g transform="translate(111.175989, 29.335947)"><g><path d="M 15.015625 -1.578125 C 15.535156 -1.578125 15.796875 -1.316406 15.796875 -0.796875 C 15.796875 -0.265625 15.535156 0 15.015625 0 L 3.609375 0 C 3.085938 0 2.828125 -0.265625 2.828125 -0.796875 L 2.828125 -18.78125 C 2.828125 -19.3125 3.085938 -19.578125 3.609375 -19.578125 L 15.015625 -19.578125 C 15.535156 -19.578125 15.796875 -19.3125 15.796875 -18.78125 C 15.796875 -18.25 15.535156 -17.984375 15.015625 -17.984375 L 4.40625 -17.984375 L 4.40625 -10.703125 L 11.421875 -10.703125 C 11.953125 -10.703125 12.21875 -10.4375 12.21875 -9.90625 C 12.21875 -9.382812 11.953125 -9.125 11.421875 -9.125 L 4.40625 -9.125 L 4.40625 -1.578125 Z M 15.015625 -1.578125 "/></g></g></g><g fill="#ffffff" fill-opacity="1"><g transform="translate(135.974088, 29.335947)"><g><path d="M 16.34375 -1.03125 C 16.445312 -0.875 16.5 -0.722656 16.5 -0.578125 C 16.5 -0.335938 16.359375 -0.132812 16.078125 0.03125 C 15.910156 0.132812 15.757812 0.1875 15.625 0.1875 C 15.351562 0.1875 15.148438 0.0507812 15.015625 -0.21875 L 10 -8.140625 L 4.40625 -8.140625 L 4.40625 -0.796875 C 4.40625 -0.265625 4.140625 0 3.609375 0 C 3.085938 0 2.828125 -0.265625 2.828125 -0.796875 L 2.828125 -18.78125 C 2.828125 -19.3125 3.085938 -19.578125 3.609375 -19.578125 L 10.734375 -19.578125 C 12.453125 -19.578125 13.753906 -19.128906 14.640625 -18.234375 C 15.535156 -17.335938 15.984375 -16.03125 15.984375 -14.3125 L 15.984375 -13.40625 C 15.984375 -11.863281 15.632812 -10.65625 14.9375 -9.78125 C 14.238281 -8.914062 13.210938 -8.390625 11.859375 -8.203125 Z M 4.40625 -9.71875 L 10.734375 -9.71875 C 12.023438 -9.71875 12.957031 -10.003906 13.53125 -10.578125 C 14.113281 -11.160156 14.40625 -12.101562 14.40625 -13.40625 L 14.40625 -14.3125 C 14.40625 -15.59375 14.113281 -16.523438 13.53125 -17.109375 C 12.957031 -17.691406 12.023438 -17.984375 10.734375 -17.984375 L 4.40625 -17.984375 Z M 4.40625 -9.71875 "/></g></g></g><g fill="#ffffff" fill-opacity="1"><g transform="translate(161.744627, 29.335947)"><g><path d="M 7.84375 -0.03125 C 6.039062 -0.03125 4.703125 -0.429688 3.828125 -1.234375 C 2.953125 -2.035156 2.488281 -3.304688 2.4375 -5.046875 C 2.414062 -5.285156 2.476562 -5.476562 2.625 -5.625 C 2.78125 -5.78125 2.976562 -5.859375 3.21875 -5.859375 C 3.445312 -5.859375 3.628906 -5.785156 3.765625 -5.640625 C 3.910156 -5.503906 3.992188 -5.316406 4.015625 -5.078125 C 4.054688 -3.773438 4.359375 -2.867188 4.921875 -2.359375 C 5.492188 -1.859375 6.46875 -1.609375 7.84375 -1.609375 L 12.21875 -1.609375 C 13.675781 -1.609375 14.679688 -1.882812 15.234375 -2.4375 C 15.796875 -3 16.078125 -4 16.078125 -5.4375 C 16.078125 -6.875 15.789062 -7.867188 15.21875 -8.421875 C 14.65625 -8.984375 13.65625 -9.265625 12.21875 -9.265625 L 8.046875 -9.265625 C 6.265625 -9.265625 4.957031 -9.679688 4.125 -10.515625 C 3.300781 -11.347656 2.890625 -12.65625 2.890625 -14.4375 C 2.890625 -16.195312 3.300781 -17.492188 4.125 -18.328125 C 4.957031 -19.160156 6.253906 -19.578125 8.015625 -19.578125 L 12.3125 -19.578125 C 14.007812 -19.578125 15.269531 -19.191406 16.09375 -18.421875 C 16.914062 -17.648438 17.351562 -16.453125 17.40625 -14.828125 C 17.425781 -14.585938 17.359375 -14.394531 17.203125 -14.25 C 17.054688 -14.113281 16.863281 -14.046875 16.625 -14.046875 C 16.40625 -14.046875 16.222656 -14.113281 16.078125 -14.25 C 15.929688 -14.394531 15.847656 -14.578125 15.828125 -14.796875 C 15.804688 -15.972656 15.523438 -16.796875 14.984375 -17.265625 C 14.453125 -17.742188 13.5625 -17.984375 12.3125 -17.984375 L 8.015625 -17.984375 C 6.703125 -17.984375 5.78125 -17.71875 5.25 -17.1875 C 4.726562 -16.664062 4.46875 -15.75 4.46875 -14.4375 C 4.46875 -13.101562 4.726562 -12.171875 5.25 -11.640625 C 5.78125 -11.109375 6.710938 -10.84375 8.046875 -10.84375 L 12.21875 -10.84375 C 14.101562 -10.84375 15.476562 -10.40625 16.34375 -9.53125 C 17.21875 -8.664062 17.65625 -7.300781 17.65625 -5.4375 C 17.65625 -3.570312 17.21875 -2.203125 16.34375 -1.328125 C 15.476562 -0.460938 14.101562 -0.03125 12.21875 -0.03125 Z M 7.84375 -0.03125 "/></g></g></g><g fill="#ffffff" fill-opacity="1"><g transform="translate(189.611973, 29.335947)"><g/></g></g><g fill="#ffffff" fill-opacity="1"><g transform="translate(204.989622, 29.335947)"><g><path d="M 8.75 0 C 6.539062 0 4.9375 -0.5 3.9375 -1.5 C 2.9375 -2.507812 2.4375 -4.117188 2.4375 -6.328125 L 2.4375 -13.25 C 2.4375 -15.457031 2.941406 -17.066406 3.953125 -18.078125 C 4.960938 -19.097656 6.550781 -19.597656 8.71875 -19.578125 L 12.40625 -19.578125 C 14.613281 -19.578125 16.21875 -19.066406 17.21875 -18.046875 C 18.21875 -17.035156 18.71875 -15.4375 18.71875 -13.25 L 18.71875 -6.328125 C 18.71875 -4.117188 18.21875 -2.507812 17.21875 -1.5 C 16.21875 -0.5 14.613281 0 12.40625 0 Z M 12.40625 -1.578125 C 14.144531 -1.578125 15.367188 -1.929688 16.078125 -2.640625 C 16.785156 -3.347656 17.140625 -4.578125 17.140625 -6.328125 L 17.140625 -13.25 C 17.140625 -14.988281 16.785156 -16.210938 16.078125 -16.921875 C 15.367188 -17.628906 14.144531 -17.984375 12.40625 -17.984375 L 8.71875 -17.984375 C 7.539062 -18.003906 6.613281 -17.863281 5.9375 -17.5625 C 5.257812 -17.257812 4.769531 -16.765625 4.46875 -16.078125 C 4.164062 -15.390625 4.015625 -14.445312 4.015625 -13.25 L 4.015625 -6.328125 C 4.015625 -4.578125 4.367188 -3.347656 5.078125 -2.640625 C 5.785156 -1.929688 7.007812 -1.578125 8.75 -1.578125 Z M 12.40625 -1.578125 "/></g></g></g><g fill="#ffffff" fill-opacity="1"><g transform="translate(233.920559, 29.335947)"><g><path d="M 3.609375 0 C 3.085938 0 2.828125 -0.265625 2.828125 -0.796875 L 2.828125 -18.78125 C 2.828125 -19.3125 3.085938 -19.578125 3.609375 -19.578125 L 14.59375 -19.578125 C 15.113281 -19.578125 15.375 -19.3125 15.375 -18.78125 C 15.375 -18.25 15.113281 -17.984375 14.59375 -17.984375 L 4.40625 -17.984375 L 4.40625 -10.703125 L 11.359375 -10.703125 C 11.890625 -10.703125 12.15625 -10.4375 12.15625 -9.90625 C 12.15625 -9.382812 11.890625 -9.125 11.359375 -9.125 L 4.40625 -9.125 L 4.40625 -0.796875 C 4.40625 -0.265625 4.140625 0 3.609375 0 Z M 3.609375 0 "/></g></g></g><g fill="#ffffff" fill-opacity="1"><g transform="translate(257.077686, 29.335947)"><g/></g></g><g fill="#ffffff" fill-opacity="1"><g transform="translate(272.455313, 29.335947)"><g><path d="M 16.34375 -1.03125 C 16.445312 -0.875 16.5 -0.722656 16.5 -0.578125 C 16.5 -0.335938 16.359375 -0.132812 16.078125 0.03125 C 15.910156 0.132812 15.757812 0.1875 15.625 0.1875 C 15.351562 0.1875 15.148438 0.0507812 15.015625 -0.21875 L 10 -8.140625 L 4.40625 -8.140625 L 4.40625 -0.796875 C 4.40625 -0.265625 4.140625 0 3.609375 0 C 3.085938 0 2.828125 -0.265625 2.828125 -0.796875 L 2.828125 -18.78125 C 2.828125 -19.3125 3.085938 -19.578125 3.609375 -19.578125 L 10.734375 -19.578125 C 12.453125 -19.578125 13.753906 -19.128906 14.640625 -18.234375 C 15.535156 -17.335938 15.984375 -16.03125 15.984375 -14.3125 L 15.984375 -13.40625 C 15.984375 -11.863281 15.632812 -10.65625 14.9375 -9.78125 C 14.238281 -8.914062 13.210938 -8.390625 11.859375 -8.203125 Z M 4.40625 -9.71875 L 10.734375 -9.71875 C 12.023438 -9.71875 12.957031 -10.003906 13.53125 -10.578125 C 14.113281 -11.160156 14.40625 -12.101562 14.40625 -13.40625 L 14.40625 -14.3125 C 14.40625 -15.59375 14.113281 -16.523438 13.53125 -17.109375 C 12.957031 -17.691406 12.023438 -17.984375 10.734375 -17.984375 L 4.40625 -17.984375 Z M 4.40625 -9.71875 "/></g></g></g><g fill="#ffffff" fill-opacity="1"><g transform="translate(298.225841, 29.335947)"><g><path d="M 3.609375 0 C 3.367188 0 3.175781 -0.0664062 3.03125 -0.203125 C 2.894531 -0.347656 2.828125 -0.546875 2.828125 -0.796875 L 2.828125 -18.78125 C 2.828125 -19.019531 2.894531 -19.210938 3.03125 -19.359375 C 3.175781 -19.503906 3.367188 -19.578125 3.609375 -19.578125 C 3.859375 -19.578125 4.050781 -19.503906 4.1875 -19.359375 C 4.332031 -19.210938 4.40625 -19.019531 4.40625 -18.78125 L 4.40625 -0.796875 C 4.40625 -0.546875 4.332031 -0.347656 4.1875 -0.203125 C 4.050781 -0.0664062 3.859375 0 3.609375 0 Z M 3.609375 0 "/></g></g></g><g fill="#ffffff" fill-opacity="1"><g transform="translate(313.238824, 29.335947)"><g><path d="M 7.84375 -0.03125 C 6.039062 -0.03125 4.703125 -0.429688 3.828125 -1.234375 C 2.953125 -2.035156 2.488281 -3.304688 2.4375 -5.046875 C 2.414062 -5.285156 2.476562 -5.476562 2.625 -5.625 C 2.78125 -5.78125 2.976562 -5.859375 3.21875 -5.859375 C 3.445312 -5.859375 3.628906 -5.785156 3.765625 -5.640625 C 3.910156 -5.503906 3.992188 -5.316406 4.015625 -5.078125 C 4.054688 -3.773438 4.359375 -2.867188 4.921875 -2.359375 C 5.492188 -1.859375 6.46875 -1.609375 7.84375 -1.609375 L 12.21875 -1.609375 C 13.675781 -1.609375 14.679688 -1.882812 15.234375 -2.4375 C 15.796875 -3 16.078125 -4 16.078125 -5.4375 C 16.078125 -6.875 15.789062 -7.867188 15.21875 -8.421875 C 14.65625 -8.984375 13.65625 -9.265625 12.21875 -9.265625 L 8.046875 -9.265625 C 6.265625 -9.265625 4.957031 -9.679688 4.125 -10.515625 C 3.300781 -11.347656 2.890625 -12.65625 2.890625 -14.4375 C 2.890625 -16.195312 3.300781 -17.492188 4.125 -18.328125 C 4.957031 -19.160156 6.253906 -19.578125 8.015625 -19.578125 L 12.3125 -19.578125 C 14.007812 -19.578125 15.269531 -19.191406 16.09375 -18.421875 C 16.914062 -17.648438 17.351562 -16.453125 17.40625 -14.828125 C 17.425781 -14.585938 17.359375 -14.394531 17.203125 -14.25 C 17.054688 -14.113281 16.863281 -14.046875 16.625 -14.046875 C 16.40625 -14.046875 16.222656 -14.113281 16.078125 -14.25 C 15.929688 -14.394531 15.847656 -14.578125 15.828125 -14.796875 C 15.804688 -15.972656 15.523438 -16.796875 14.984375 -17.265625 C 14.453125 -17.742188 13.5625 -17.984375 12.3125 -17.984375 L 8.015625 -17.984375 C 6.703125 -17.984375 5.78125 -17.71875 5.25 -17.1875 C 4.726562 -16.664062 4.46875 -15.75 4.46875 -14.4375 C 4.46875 -13.101562 4.726562 -12.171875 5.25 -11.640625 C 5.78125 -11.109375 6.710938 -10.84375 8.046875 -10.84375 L 12.21875 -10.84375 C 14.101562 -10.84375 15.476562 -10.40625 16.34375 -9.53125 C 17.21875 -8.664062 17.65625 -7.300781 17.65625 -5.4375 C 17.65625 -3.570312 17.21875 -2.203125 16.34375 -1.328125 C 15.476562 -0.460938 14.101562 -0.03125 12.21875 -0.03125 Z M 7.84375 -0.03125 "/></g></g></g><g fill="#ffffff" fill-opacity="1"><g transform="translate(341.10616, 29.335947)"><g><path d="M 15.796875 -1.25 C 15.941406 -1.082031 16.015625 -0.910156 16.015625 -0.734375 C 16.015625 -0.503906 15.90625 -0.300781 15.6875 -0.125 C 15.519531 0.0195312 15.347656 0.09375 15.171875 0.09375 C 14.960938 0.09375 14.769531 -0.0195312 14.59375 -0.25 L 6.6875 -10.0625 L 4.40625 -7.71875 L 4.40625 -0.796875 C 4.40625 -0.265625 4.140625 0 3.609375 0 C 3.085938 0 2.828125 -0.265625 2.828125 -0.796875 L 2.828125 -18.78125 C 2.828125 -19.3125 3.085938 -19.578125 3.609375 -19.578125 C 4.140625 -19.578125 4.40625 -19.3125 4.40625 -18.78125 L 4.40625 -10 L 13.46875 -19.296875 C 13.644531 -19.484375 13.828125 -19.578125 14.015625 -19.578125 C 14.191406 -19.578125 14.375 -19.484375 14.5625 -19.296875 C 14.738281 -19.117188 14.828125 -18.925781 14.828125 -18.71875 C 14.828125 -18.5625 14.75 -18.378906 14.59375 -18.171875 L 7.78125 -11.1875 Z M 15.796875 -1.25 "/></g></g></g></g></g></g></g></g></g></svg>