<svg xmlns="http://www.w3.org/2000/svg" xmlns:xlink="http://www.w3.org/1999/xlink" width="500" zoomAndPan="magnify" viewBox="0 0 375 374.999991" height="500" preserveAspectRatio="xMidYMid meet" version="1.0"><defs><filter x="0%" y="0%" width="100%" height="100%" id="f6ba6e922b"><feColorMatrix values="0 0 0 0 1 0 0 0 0 1 0 0 0 0 1 0 0 0 1 0" color-interpolation-filters="sRGB"/></filter><g/><clipPath id="4373d9d069"><path d="M 20.527344 59 L 127 59 L 127 221 L 20.527344 221 Z M 20.527344 59 " clip-rule="nonzero"/></clipPath><clipPath id="f8370e99ce"><path d="M 73.503906 159.476562 L 46.039062 59.867188 L 20.632812 59.867188 L 20.632812 220.566406 L 40.910156 220.566406 L 40.910156 103.257812 L 62.980469 185.664062 L 84.039062 185.664062 L 106.113281 102.996094 L 106.113281 220.566406 L 126.386719 220.566406 L 126.386719 59.867188 L 100.980469 59.867188 Z M 73.503906 159.476562 " clip-rule="nonzero"/></clipPath><clipPath id="30b7c51223"><path d="M 0.527344 0.761719 L 106.480469 0.761719 L 106.480469 161.800781 L 0.527344 161.800781 Z M 0.527344 0.761719 " clip-rule="nonzero"/></clipPath><clipPath id="a3a96f941f"><path d="M 53.503906 100.476562 L 26.039062 0.867188 L 0.632812 0.867188 L 0.632812 161.566406 L 20.910156 161.566406 L 20.910156 44.257812 L 42.980469 126.664062 L 64.039062 126.664062 L 86.113281 43.996094 L 86.113281 161.566406 L 106.386719 161.566406 L 106.386719 0.867188 L 80.980469 0.867188 Z M 53.503906 100.476562 " clip-rule="nonzero"/></clipPath><clipPath id="59f21f9b5d"><rect x="0" width="107" y="0" height="162"/></clipPath><clipPath id="eafd68a519"><path d="M 159 59 L 236.769531 59 L 236.769531 221 L 159 221 Z M 159 59 " clip-rule="nonzero"/></clipPath><clipPath id="9393ab112b"><path d="M 212.128906 59.867188 L 183.636719 59.867188 C 175.253906 59.867188 169.132812 61.789062 165.28125 65.644531 C 161.425781 69.496094 159.503906 75.09375 159.503906 82.460938 L 159.503906 197.984375 C 159.503906 205.351562 161.425781 210.949219 165.28125 214.804688 C 169.132812 218.65625 175.253906 220.578125 183.636719 220.578125 L 212.128906 220.578125 C 220.511719 220.578125 226.628906 218.65625 230.484375 214.804688 C 234.339844 210.949219 236.257812 205.351562 236.257812 197.984375 L 236.257812 82.460938 C 236.257812 75.109375 234.339844 69.496094 230.484375 65.644531 C 226.628906 61.789062 220.511719 59.867188 212.128906 59.867188 Z M 212.894531 171.796875 L 212.894531 194.390625 C 212.894531 197.296875 212.429688 199.273438 211.484375 200.289062 C 210.535156 201.304688 208.4375 201.824219 205.199219 201.824219 L 190.5625 201.824219 C 187.476562 201.824219 185.433594 201.316406 184.402344 200.289062 C 183.375 199.261719 182.867188 197.296875 182.867188 194.390625 L 182.867188 86.054688 C 182.867188 82.96875 183.375 80.964844 184.402344 80.019531 C 185.433594 79.074219 187.488281 78.605469 190.5625 78.605469 L 205.199219 78.605469 C 208.453125 78.605469 210.550781 79.085938 211.484375 80.019531 C 212.417969 80.953125 212.894531 82.96875 212.894531 86.054688 Z M 212.894531 171.796875 " clip-rule="nonzero"/></clipPath><clipPath id="dc3976882f"><path d="M 0.359375 0.761719 L 77.398438 0.761719 L 77.398438 161.800781 L 0.359375 161.800781 Z M 0.359375 0.761719 " clip-rule="nonzero"/></clipPath><clipPath id="dc401a961f"><path d="M 53.128906 0.867188 L 24.636719 0.867188 C 16.253906 0.867188 10.132812 2.789062 6.28125 6.644531 C 2.425781 10.496094 0.503906 16.09375 0.503906 23.460938 L 0.503906 138.984375 C 0.503906 146.351562 2.425781 151.949219 6.28125 155.804688 C 10.132812 159.65625 16.253906 161.578125 24.636719 161.578125 L 53.128906 161.578125 C 61.511719 161.578125 67.628906 159.65625 71.484375 155.804688 C 75.339844 151.949219 77.257812 146.351562 77.257812 138.984375 L 77.257812 23.460938 C 77.257812 16.109375 75.339844 10.496094 71.484375 6.644531 C 67.628906 2.789062 61.511719 0.867188 53.128906 0.867188 Z M 53.894531 112.796875 L 53.894531 135.390625 C 53.894531 138.296875 53.429688 140.273438 52.484375 141.289062 C 51.535156 142.304688 49.4375 142.824219 46.199219 142.824219 L 31.5625 142.824219 C 28.476562 142.824219 26.433594 142.316406 25.402344 141.289062 C 24.375 140.261719 23.867188 138.296875 23.867188 135.390625 L 23.867188 27.054688 C 23.867188 23.96875 24.375 21.964844 25.402344 21.019531 C 26.433594 20.074219 28.488281 19.605469 31.5625 19.605469 L 46.199219 19.605469 C 49.453125 19.605469 51.550781 20.085938 52.484375 21.019531 C 53.417969 21.953125 53.894531 23.96875 53.894531 27.054688 Z M 53.894531 112.796875 " clip-rule="nonzero"/></clipPath><clipPath id="cbb7aa6dd1"><rect x="0" width="78" y="0" height="162"/></clipPath><clipPath id="61f65b7ab3"><path d="M 269 59 L 354.472656 59 L 354.472656 221 L 269 221 Z M 269 59 " clip-rule="nonzero"/></clipPath><clipPath id="fef79f4e66"><path d="M 329.1875 220.566406 L 354.347656 220.566406 L 328.761719 155.113281 C 333.769531 154.320312 337.636719 152.5625 340.355469 149.832031 C 344.210938 145.976562 346.128906 140.296875 346.128906 132.765625 L 346.128906 82.460938 C 346.128906 75.109375 344.210938 69.496094 340.355469 65.644531 C 336.5 61.789062 330.378906 59.867188 322 59.867188 L 269.375 59.867188 L 269.375 220.566406 L 292.476562 220.566406 L 292.476562 155.621094 L 305.140625 155.621094 Z M 292.476562 78.605469 L 315.070312 78.605469 C 318.324219 78.605469 320.421875 79.085938 321.355469 80.019531 C 322.285156 80.953125 322.765625 82.96875 322.765625 86.054688 L 322.765625 129.695312 C 322.765625 132.601562 322.285156 134.578125 321.355469 135.59375 C 320.421875 136.609375 318.308594 137.128906 315.070312 137.128906 L 292.476562 137.128906 Z M 292.476562 78.605469 " clip-rule="nonzero"/></clipPath><clipPath id="00da01506a"><path d="M 0.28125 0.761719 L 85.472656 0.761719 L 85.472656 161.800781 L 0.28125 161.800781 Z M 0.28125 0.761719 " clip-rule="nonzero"/></clipPath><clipPath id="56e921626a"><path d="M 60.1875 161.566406 L 85.347656 161.566406 L 59.761719 96.113281 C 64.769531 95.320312 68.636719 93.5625 71.355469 90.832031 C 75.210938 86.976562 77.128906 81.296875 77.128906 73.765625 L 77.128906 23.460938 C 77.128906 16.109375 75.210938 10.496094 71.355469 6.644531 C 67.5 2.789062 61.378906 0.867188 53 0.867188 L 0.375 0.867188 L 0.375 161.566406 L 23.476562 161.566406 L 23.476562 96.621094 L 36.140625 96.621094 Z M 23.476562 19.605469 L 46.070312 19.605469 C 49.324219 19.605469 51.421875 20.085938 52.355469 21.019531 C 53.285156 21.953125 53.765625 23.96875 53.765625 27.054688 L 53.765625 70.695312 C 53.765625 73.601562 53.285156 75.578125 52.355469 76.59375 C 51.421875 77.609375 49.308594 78.128906 46.070312 78.128906 L 23.476562 78.128906 Z M 23.476562 19.605469 " clip-rule="nonzero"/></clipPath><clipPath id="3c427d93dc"><rect x="0" width="86" y="0" height="162"/></clipPath><clipPath id="7cf0eca8c2"><path d="M 20.527344 253.195312 L 51 253.195312 L 51 318.886719 L 20.527344 318.886719 Z M 20.527344 253.195312 " clip-rule="nonzero"/></clipPath><clipPath id="e2a641f2b2"><path d="M 41.222656 253.679688 L 30.261719 253.679688 C 26.957031 253.679688 24.515625 254.464844 22.964844 256.011719 C 21.414062 257.5625 20.632812 259.828125 20.632812 262.789062 L 20.632812 309.335938 C 20.632812 312.367188 21.414062 314.660156 22.964844 316.210938 C 24.515625 317.761719 26.941406 318.542969 30.261719 318.542969 L 41.222656 318.542969 C 44.597656 318.542969 47.066406 317.761719 48.617188 316.210938 C 50.167969 314.660156 50.949219 312.367188 50.949219 309.335938 L 50.949219 298.375 L 41.429688 298.375 L 41.429688 308.199219 C 41.429688 309.378906 41.238281 310.160156 40.867188 310.570312 C 40.496094 310.984375 39.671875 311.1875 38.4375 311.1875 L 33.15625 311.1875 C 31.921875 311.1875 31.085938 310.984375 30.675781 310.570312 C 30.261719 310.160156 30.058594 309.363281 30.058594 308.199219 L 30.058594 264.023438 C 30.058594 262.789062 30.261719 261.980469 30.675781 261.597656 C 31.085938 261.210938 31.910156 261.035156 33.15625 261.035156 L 38.4375 261.035156 C 39.671875 261.035156 40.496094 261.226562 40.867188 261.597656 C 41.238281 261.96875 41.429688 262.789062 41.429688 264.023438 L 41.429688 273.957031 L 50.949219 273.957031 L 50.949219 262.789062 C 50.949219 259.828125 50.167969 257.5625 48.617188 256.011719 C 47.066406 254.464844 44.597656 253.679688 41.222656 253.679688 Z M 41.222656 253.679688 " clip-rule="nonzero"/></clipPath><clipPath id="a194ee3d97"><path d="M 0.527344 0.679688 L 31 0.679688 L 31 65.71875 L 0.527344 65.71875 Z M 0.527344 0.679688 " clip-rule="nonzero"/></clipPath><clipPath id="f4d0212796"><path d="M 21.222656 0.679688 L 10.261719 0.679688 C 6.957031 0.679688 4.515625 1.464844 2.964844 3.011719 C 1.414062 4.5625 0.632812 6.828125 0.632812 9.789062 L 0.632812 56.335938 C 0.632812 59.367188 1.414062 61.660156 2.964844 63.210938 C 4.515625 64.761719 6.941406 65.542969 10.261719 65.542969 L 21.222656 65.542969 C 24.597656 65.542969 27.066406 64.761719 28.617188 63.210938 C 30.167969 61.660156 30.949219 59.367188 30.949219 56.335938 L 30.949219 45.375 L 21.429688 45.375 L 21.429688 55.199219 C 21.429688 56.378906 21.238281 57.160156 20.867188 57.570312 C 20.496094 57.984375 19.671875 58.1875 18.4375 58.1875 L 13.15625 58.1875 C 11.921875 58.1875 11.085938 57.984375 10.675781 57.570312 C 10.261719 57.160156 10.058594 56.363281 10.058594 55.199219 L 10.058594 11.023438 C 10.058594 9.789062 10.261719 8.980469 10.675781 8.597656 C 11.085938 8.210938 11.910156 8.035156 13.15625 8.035156 L 18.4375 8.035156 C 19.671875 8.035156 20.496094 8.226562 20.867188 8.597656 C 21.238281 8.96875 21.429688 9.789062 21.429688 11.023438 L 21.429688 20.957031 L 30.949219 20.957031 L 30.949219 9.789062 C 30.949219 6.828125 30.167969 4.5625 28.617188 3.011719 C 27.066406 1.464844 24.597656 0.679688 21.222656 0.679688 Z M 21.222656 0.679688 " clip-rule="nonzero"/></clipPath><clipPath id="21a6c99143"><rect x="0" width="31" y="0" height="66"/></clipPath><clipPath id="7107645ec3"><path d="M 91 253.195312 L 128 253.195312 L 128 318.886719 L 91 318.886719 Z M 91 253.195312 " clip-rule="nonzero"/></clipPath><clipPath id="fdfc682006"><path d="M 118.390625 253.679688 L 109.910156 289.363281 L 100.914062 253.679688 L 91.390625 253.679688 L 105.246094 297.992188 L 105.246094 318.433594 L 114.660156 318.433594 L 114.660156 297.949219 L 127.898438 253.679688 Z M 118.390625 253.679688 " clip-rule="nonzero"/></clipPath><clipPath id="a4f5adc970"><path d="M 0.199219 0.679688 L 36.921875 0.679688 L 36.921875 65.480469 L 0.199219 65.480469 Z M 0.199219 0.679688 " clip-rule="nonzero"/></clipPath><clipPath id="1de720ad0f"><path d="M 27.390625 0.679688 L 18.910156 36.363281 L 9.914062 0.679688 L 0.390625 0.679688 L 14.246094 44.992188 L 14.246094 65.433594 L 23.660156 65.433594 L 23.660156 44.949219 L 36.898438 0.679688 Z M 27.390625 0.679688 " clip-rule="nonzero"/></clipPath><clipPath id="d7b8febdb3"><rect x="0" width="37" y="0" height="66"/></clipPath><clipPath id="80d840448e"><path d="M 169.707031 253.195312 L 202.554688 253.195312 L 202.554688 318.886719 L 169.707031 318.886719 Z M 169.707031 253.195312 " clip-rule="nonzero"/></clipPath><clipPath id="80768c6dba"><path d="M 192.359375 253.679688 L 169.902344 253.679688 L 169.902344 318.433594 L 192.347656 318.433594 C 195.722656 318.433594 198.191406 317.648438 199.742188 316.101562 C 201.289062 314.550781 202.074219 312.285156 202.074219 309.324219 L 202.074219 291.640625 C 202.074219 289.910156 201.730469 288.566406 201.042969 287.605469 C 200.359375 286.644531 199.316406 285.988281 197.941406 285.644531 C 199.328125 285.300781 200.359375 284.574219 201.042969 283.476562 C 201.730469 282.378906 202.074219 280.96875 202.074219 279.238281 L 202.074219 262.789062 C 202.074219 259.828125 201.289062 257.5625 199.742188 256.011719 C 198.191406 254.464844 195.722656 253.679688 192.347656 253.679688 Z M 192.675781 308.089844 C 192.675781 309.269531 192.484375 310.050781 192.113281 310.460938 C 191.742188 310.875 190.890625 311.078125 189.574219 311.078125 L 179.328125 311.078125 L 179.328125 289.15625 L 189.574219 289.15625 C 190.878906 289.15625 191.730469 289.347656 192.113281 289.71875 C 192.496094 290.089844 192.675781 290.914062 192.675781 292.148438 Z M 192.675781 278.8125 C 192.675781 279.992188 192.484375 280.773438 192.113281 281.1875 C 191.742188 281.597656 190.890625 281.804688 189.574219 281.804688 L 179.328125 281.804688 L 179.328125 261.019531 L 189.574219 261.019531 C 190.878906 261.019531 191.730469 261.210938 192.113281 261.582031 C 192.496094 261.953125 192.675781 262.777344 192.675781 264.011719 Z M 192.675781 278.8125 " clip-rule="nonzero"/></clipPath><clipPath id="495bc3e63e"><path d="M 0.707031 0.679688 L 33.078125 0.679688 L 33.078125 65.480469 L 0.707031 65.480469 Z M 0.707031 0.679688 " clip-rule="nonzero"/></clipPath><clipPath id="c3b737c472"><path d="M 23.359375 0.679688 L 0.902344 0.679688 L 0.902344 65.433594 L 23.347656 65.433594 C 26.722656 65.433594 29.191406 64.648438 30.742188 63.101562 C 32.289062 61.550781 33.074219 59.285156 33.074219 56.324219 L 33.074219 38.640625 C 33.074219 36.910156 32.730469 35.566406 32.042969 34.605469 C 31.359375 33.644531 30.316406 32.988281 28.941406 32.644531 C 30.328125 32.300781 31.359375 31.574219 32.042969 30.476562 C 32.730469 29.378906 33.074219 27.96875 33.074219 26.238281 L 33.074219 9.789062 C 33.074219 6.828125 32.289062 4.5625 30.742188 3.011719 C 29.191406 1.464844 26.722656 0.679688 23.347656 0.679688 Z M 23.675781 55.089844 C 23.675781 56.269531 23.484375 57.050781 23.113281 57.460938 C 22.742188 57.875 21.890625 58.078125 20.574219 58.078125 L 10.328125 58.078125 L 10.328125 36.15625 L 20.574219 36.15625 C 21.878906 36.15625 22.730469 36.347656 23.113281 36.71875 C 23.496094 37.089844 23.675781 37.914062 23.675781 39.148438 Z M 23.675781 25.8125 C 23.675781 26.992188 23.484375 27.773438 23.113281 28.1875 C 22.742188 28.597656 21.890625 28.804688 20.574219 28.804688 L 10.328125 28.804688 L 10.328125 8.019531 L 20.574219 8.019531 C 21.878906 8.019531 22.730469 8.210938 23.113281 8.582031 C 23.496094 8.953125 23.675781 9.777344 23.675781 11.011719 Z M 23.675781 25.8125 " clip-rule="nonzero"/></clipPath><clipPath id="44daadeff4"><rect x="0" width="34" y="0" height="66"/></clipPath><clipPath id="a1664f807e"><path d="M 248.425781 253.695312 L 275.835938 253.695312 L 275.835938 261.238281 L 248.425781 261.238281 Z M 248.425781 261.238281 L 257.835938 261.238281 L 257.835938 281.199219 L 248.425781 281.199219 Z M 248.425781 281.199219 L 272.734375 281.199219 L 272.734375 288.746094 L 248.425781 288.746094 Z M 248.425781 288.746094 L 257.835938 288.746094 L 257.835938 310.902344 L 248.425781 310.902344 Z M 248.425781 310.902344 L 276.5625 310.902344 L 276.5625 318.445312 L 248.425781 318.445312 Z M 248.425781 310.902344 " clip-rule="nonzero"/></clipPath><clipPath id="dd16edc770"><path d="M 0.425781 0.695312 L 27.835938 0.695312 L 27.835938 8.238281 L 0.425781 8.238281 Z M 0.425781 8.238281 L 9.835938 8.238281 L 9.835938 28.199219 L 0.425781 28.199219 Z M 0.425781 28.199219 L 24.734375 28.199219 L 24.734375 35.746094 L 0.425781 35.746094 Z M 0.425781 35.746094 L 9.835938 35.746094 L 9.835938 57.902344 L 0.425781 57.902344 Z M 0.425781 57.902344 L 28.5625 57.902344 L 28.5625 65.445312 L 0.425781 65.445312 Z M 0.425781 57.902344 " clip-rule="nonzero"/></clipPath><clipPath id="c5bb3953c7"><rect x="0" width="29" y="0" height="66"/></clipPath><clipPath id="39f3d849e1"><path d="M 320 253.195312 L 354.472656 253.195312 L 354.472656 318.886719 L 320 318.886719 Z M 320 253.195312 " clip-rule="nonzero"/></clipPath><clipPath id="8cafd738d7"><path d="M 344.210938 318.433594 L 354.347656 318.433594 L 344.03125 292.066406 C 346.046875 291.75 347.609375 291.035156 348.707031 289.9375 C 350.257812 288.390625 351.039062 286.097656 351.039062 283.066406 L 351.039062 262.789062 C 351.039062 259.828125 350.257812 257.5625 348.707031 256.011719 C 347.160156 254.464844 344.6875 253.679688 341.3125 253.679688 L 320.105469 253.679688 L 320.105469 318.433594 L 329.421875 318.433594 L 329.421875 292.269531 L 334.523438 292.269531 L 344.210938 318.445312 Z M 329.421875 261.226562 L 338.53125 261.226562 C 339.832031 261.226562 340.683594 261.417969 341.066406 261.789062 C 341.453125 262.160156 341.628906 262.980469 341.628906 264.21875 L 341.628906 281.804688 C 341.628906 282.984375 341.4375 283.765625 341.066406 284.175781 C 340.695312 284.589844 339.847656 284.792969 338.53125 284.792969 L 329.421875 284.792969 Z M 329.421875 261.226562 " clip-rule="nonzero"/></clipPath><clipPath id="ae47ab1cd5"><path d="M 0 0.679688 L 34.472656 0.679688 L 34.472656 65.480469 L 0 65.480469 Z M 0 0.679688 " clip-rule="nonzero"/></clipPath><clipPath id="6724832d74"><path d="M 24.210938 65.433594 L 34.347656 65.433594 L 24.03125 39.066406 C 26.046875 38.75 27.609375 38.035156 28.707031 36.9375 C 30.257812 35.390625 31.039062 33.097656 31.039062 30.066406 L 31.039062 9.789062 C 31.039062 6.828125 30.257812 4.5625 28.707031 3.011719 C 27.160156 1.464844 24.6875 0.679688 21.3125 0.679688 L 0.105469 0.679688 L 0.105469 65.433594 L 9.421875 65.433594 L 9.421875 39.269531 L 14.523438 39.269531 L 24.210938 65.445312 Z M 9.421875 8.226562 L 18.53125 8.226562 C 19.832031 8.226562 20.683594 8.417969 21.066406 8.789062 C 21.453125 9.160156 21.628906 9.980469 21.628906 11.21875 L 21.628906 28.804688 C 21.628906 29.984375 21.4375 30.765625 21.066406 31.175781 C 20.695312 31.589844 19.847656 31.792969 18.53125 31.792969 L 9.421875 31.792969 Z M 9.421875 8.226562 " clip-rule="nonzero"/></clipPath><clipPath id="7f4ac2827b"><rect x="0" width="35" y="0" height="66"/></clipPath><mask id="319861324c"><g filter="url(#f6ba6e922b)"><rect x="-82.5" width="540" fill="#000000" y="-82.499998" height="539.999987" fill-opacity="0.5"/></g></mask><clipPath id="fa89229967"><rect x="0" width="345" y="0" height="35"/></clipPath><clipPath id="18e610c437"><rect x="0" width="375" y="0" height="375"/></clipPath></defs><g transform="matrix(1, 0, 0, 1, 0, 0)"><g clip-path="url(#18e610c437)"><g clip-path="url(#4373d9d069)"><g clip-path="url(#f8370e99ce)"><g transform="matrix(1, 0, 0, 1, 20, 59)"><g clip-path="url(#59f21f9b5d)"><g clip-path="url(#30b7c51223)"><g clip-path="url(#a3a96f941f)"><rect x="-156.5" width="648" fill="#ffffff" y="-195.499997" height="647.999984" fill-opacity="1"/></g></g></g></g></g></g><g clip-path="url(#eafd68a519)"><g clip-path="url(#9393ab112b)"><g transform="matrix(1, 0, 0, 1, 159, 59)"><g clip-path="url(#cbb7aa6dd1)"><g clip-path="url(#dc3976882f)"><g clip-path="url(#dc401a961f)"><rect x="-295.5" width="648" fill="#ffffff" y="-195.499997" height="647.999984" fill-opacity="1"/></g></g></g></g></g></g><g clip-path="url(#61f65b7ab3)"><g clip-path="url(#fef79f4e66)"><g transform="matrix(1, 0, 0, 1, 269, 59)"><g clip-path="url(#3c427d93dc)"><g clip-path="url(#00da01506a)"><g clip-path="url(#56e921626a)"><rect x="-405.5" width="648" fill="#ffffff" y="-195.499997" height="647.999984" fill-opacity="1"/></g></g></g></g></g></g><g clip-path="url(#7cf0eca8c2)"><g clip-path="url(#e2a641f2b2)"><g transform="matrix(1, 0, 0, 1, 20, 253)"><g clip-path="url(#21a6c99143)"><g clip-path="url(#a194ee3d97)"><g clip-path="url(#f4d0212796)"><rect x="-156.5" width="648" fill="#ffffff" y="-389.499997" height="647.999984" fill-opacity="1"/></g></g></g></g></g></g><g clip-path="url(#7107645ec3)"><g clip-path="url(#fdfc682006)"><g transform="matrix(1, 0, 0, 1, 91, 253)"><g clip-path="url(#d7b8febdb3)"><g clip-path="url(#a4f5adc970)"><g clip-path="url(#1de720ad0f)"><rect x="-227.5" width="648" fill="#ffffff" y="-389.499997" height="647.999984" fill-opacity="1"/></g></g></g></g></g></g><g clip-path="url(#80d840448e)"><g clip-path="url(#80768c6dba)"><g transform="matrix(1, 0, 0, 1, 169, 253)"><g clip-path="url(#44daadeff4)"><g clip-path="url(#495bc3e63e)"><g clip-path="url(#c3b737c472)"><rect x="-305.5" width="648" fill="#ffffff" y="-389.499997" height="647.999984" fill-opacity="1"/></g></g></g></g></g></g><g clip-path="url(#a1664f807e)"><g transform="matrix(1, 0, 0, 1, 248, 253)"><g clip-path="url(#c5bb3953c7)"><g clip-path="url(#dd16edc770)"><rect x="-384.5" width="648" fill="#ffffff" y="-389.499997" height="647.999984" fill-opacity="1"/></g></g></g></g><g clip-path="url(#39f3d849e1)"><g clip-path="url(#8cafd738d7)"><g transform="matrix(1, 0, 0, 1, 320, 253)"><g clip-path="url(#7f4ac2827b)"><g clip-path="url(#ae47ab1cd5)"><g clip-path="url(#6724832d74)"><rect x="-456.5" width="648" fill="#ffffff" y="-389.499997" height="647.999984" fill-opacity="1"/></g></g></g></g></g></g><g mask="url(#319861324c)"><g transform="matrix(1, 0, 0, 1, 19, 339)"><g clip-path="url(#fa89229967)"><g fill="#ffffff" fill-opacity="1"><g transform="translate(0.572442, 27.360842)"><g><path d="M 19.015625 -18.359375 C 19.453125 -18.359375 19.671875 -18.113281 19.671875 -17.625 L 19.671875 -0.734375 C 19.671875 -0.242188 19.425781 0 18.9375 0 C 18.4375 0 18.1875 -0.242188 18.1875 -0.734375 L 18.1875 -15.28125 L 12.03125 -5.9375 C 11.84375 -5.613281 11.550781 -5.453125 11.15625 -5.453125 C 10.8125 -5.453125 10.535156 -5.613281 10.328125 -5.9375 L 4.140625 -15.375 L 4.140625 -0.734375 C 4.140625 -0.242188 3.890625 0 3.390625 0 C 2.898438 0 2.65625 -0.242188 2.65625 -0.734375 L 2.65625 -17.625 C 2.65625 -18.113281 2.898438 -18.359375 3.390625 -18.359375 C 3.773438 -18.359375 4.0625 -18.195312 4.25 -17.875 L 11.203125 -7.25 L 18.140625 -17.875 C 18.328125 -18.195312 18.617188 -18.359375 19.015625 -18.359375 Z M 19.015625 -18.359375 "/></g></g></g><g fill="#ffffff" fill-opacity="1"><g transform="translate(30.190687, 27.360842)"><g><path d="M 16.6875 -1.0625 C 16.738281 -0.925781 16.765625 -0.800781 16.765625 -0.6875 C 16.765625 -0.4375 16.601562 -0.234375 16.28125 -0.078125 C 16.164062 -0.0234375 16.039062 0 15.90625 0 C 15.644531 0 15.457031 -0.148438 15.34375 -0.453125 L 13.4375 -4.96875 L 4.109375 -4.96875 L 2.203125 -0.453125 C 2.066406 -0.148438 1.851562 0 1.5625 0 C 1.46875 0 1.347656 -0.0234375 1.203125 -0.078125 C 0.890625 -0.191406 0.734375 -0.40625 0.734375 -0.71875 C 0.734375 -0.863281 0.753906 -0.976562 0.796875 -1.0625 L 7.875 -17.796875 C 8.019531 -18.171875 8.300781 -18.359375 8.71875 -18.359375 L 8.78125 -18.359375 C 9.164062 -18.359375 9.441406 -18.171875 9.609375 -17.796875 Z M 4.703125 -6.4375 L 12.796875 -6.4375 L 8.75 -16.03125 Z M 4.703125 -6.4375 "/></g></g></g><g fill="#ffffff" fill-opacity="1"><g transform="translate(54.96339, 27.360842)"><g><path d="M 7.359375 -0.03125 C 5.660156 -0.03125 4.398438 -0.40625 3.578125 -1.15625 C 2.765625 -1.90625 2.332031 -3.097656 2.28125 -4.734375 C 2.257812 -4.960938 2.320312 -5.144531 2.46875 -5.28125 C 2.613281 -5.425781 2.796875 -5.5 3.015625 -5.5 C 3.234375 -5.5 3.40625 -5.429688 3.53125 -5.296875 C 3.664062 -5.171875 3.742188 -4.992188 3.765625 -4.765625 C 3.804688 -3.546875 4.09375 -2.695312 4.625 -2.21875 C 5.15625 -1.75 6.066406 -1.515625 7.359375 -1.515625 L 11.46875 -1.515625 C 12.832031 -1.515625 13.773438 -1.773438 14.296875 -2.296875 C 14.816406 -2.816406 15.078125 -3.753906 15.078125 -5.109375 C 15.078125 -6.453125 14.8125 -7.382812 14.28125 -7.90625 C 13.75 -8.4375 12.8125 -8.703125 11.46875 -8.703125 L 7.5625 -8.703125 C 5.882812 -8.703125 4.65625 -9.085938 3.875 -9.859375 C 3.09375 -10.640625 2.703125 -11.867188 2.703125 -13.546875 C 2.703125 -15.203125 3.09375 -16.414062 3.875 -17.1875 C 4.65625 -17.96875 5.875 -18.359375 7.53125 -18.359375 L 11.546875 -18.359375 C 13.140625 -18.359375 14.320312 -18 15.09375 -17.28125 C 15.863281 -16.5625 16.28125 -15.441406 16.34375 -13.921875 C 16.363281 -13.691406 16.300781 -13.507812 16.15625 -13.375 C 16.007812 -13.238281 15.820312 -13.171875 15.59375 -13.171875 C 15.382812 -13.171875 15.210938 -13.238281 15.078125 -13.375 C 14.953125 -13.507812 14.878906 -13.679688 14.859375 -13.890625 C 14.835938 -14.992188 14.570312 -15.765625 14.0625 -16.203125 C 13.5625 -16.648438 12.722656 -16.875 11.546875 -16.875 L 7.53125 -16.875 C 6.289062 -16.875 5.421875 -16.625 4.921875 -16.125 C 4.429688 -15.632812 4.1875 -14.773438 4.1875 -13.546875 C 4.1875 -12.285156 4.429688 -11.410156 4.921875 -10.921875 C 5.421875 -10.429688 6.300781 -10.1875 7.5625 -10.1875 L 11.46875 -10.1875 C 13.226562 -10.1875 14.515625 -9.773438 15.328125 -8.953125 C 16.148438 -8.140625 16.5625 -6.859375 16.5625 -5.109375 C 16.5625 -3.359375 16.148438 -2.070312 15.328125 -1.25 C 14.515625 -0.4375 13.226562 -0.03125 11.46875 -0.03125 Z M 7.359375 -0.03125 "/></g></g></g><g fill="#ffffff" fill-opacity="1"><g transform="translate(81.104242, 27.360842)"><g><path d="M 8.0625 0.03125 C 7.851562 0.03125 7.675781 -0.0390625 7.53125 -0.1875 C 7.394531 -0.332031 7.328125 -0.507812 7.328125 -0.71875 L 7.328125 -16.875 L 1.25 -16.875 C 1.039062 -16.875 0.863281 -16.945312 0.71875 -17.09375 C 0.582031 -17.238281 0.515625 -17.414062 0.515625 -17.625 C 0.515625 -17.851562 0.582031 -18.03125 0.71875 -18.15625 C 0.863281 -18.289062 1.039062 -18.359375 1.25 -18.359375 L 14.890625 -18.359375 C 15.117188 -18.359375 15.296875 -18.289062 15.421875 -18.15625 C 15.554688 -18.03125 15.625 -17.851562 15.625 -17.625 C 15.625 -17.414062 15.554688 -17.238281 15.421875 -17.09375 C 15.296875 -16.945312 15.117188 -16.875 14.890625 -16.875 L 8.8125 -16.875 L 8.8125 -0.71875 C 8.8125 -0.507812 8.742188 -0.332031 8.609375 -0.1875 C 8.472656 -0.0390625 8.289062 0.03125 8.0625 0.03125 Z M 8.0625 0.03125 "/></g></g></g><g fill="#ffffff" fill-opacity="1"><g transform="translate(104.565801, 27.360842)"><g><path d="M 14.09375 -1.484375 C 14.582031 -1.484375 14.828125 -1.234375 14.828125 -0.734375 C 14.828125 -0.242188 14.582031 0 14.09375 0 L 3.390625 0 C 2.898438 0 2.65625 -0.242188 2.65625 -0.734375 L 2.65625 -17.625 C 2.65625 -18.113281 2.898438 -18.359375 3.390625 -18.359375 L 14.09375 -18.359375 C 14.582031 -18.359375 14.828125 -18.113281 14.828125 -17.625 C 14.828125 -17.125 14.582031 -16.875 14.09375 -16.875 L 4.140625 -16.875 L 4.140625 -10.03125 L 10.71875 -10.03125 C 11.21875 -10.03125 11.46875 -9.785156 11.46875 -9.296875 C 11.46875 -8.796875 11.21875 -8.546875 10.71875 -8.546875 L 4.140625 -8.546875 L 4.140625 -1.484375 Z M 14.09375 -1.484375 "/></g></g></g><g fill="#ffffff" fill-opacity="1"><g transform="translate(127.827835, 27.360842)"><g><path d="M 15.34375 -0.96875 C 15.4375 -0.8125 15.484375 -0.671875 15.484375 -0.546875 C 15.484375 -0.316406 15.347656 -0.125 15.078125 0.03125 C 14.929688 0.125 14.789062 0.171875 14.65625 0.171875 C 14.40625 0.171875 14.21875 0.046875 14.09375 -0.203125 L 9.375 -7.640625 L 4.140625 -7.640625 L 4.140625 -0.734375 C 4.140625 -0.242188 3.890625 0 3.390625 0 C 2.898438 0 2.65625 -0.242188 2.65625 -0.734375 L 2.65625 -17.625 C 2.65625 -18.113281 2.898438 -18.359375 3.390625 -18.359375 L 10.0625 -18.359375 C 11.675781 -18.359375 12.898438 -17.941406 13.734375 -17.109375 C 14.578125 -16.273438 15 -15.050781 15 -13.4375 L 15 -12.578125 C 15 -11.128906 14.671875 -9.992188 14.015625 -9.171875 C 13.359375 -8.359375 12.394531 -7.867188 11.125 -7.703125 Z M 4.140625 -9.125 L 10.0625 -9.125 C 11.28125 -9.125 12.160156 -9.394531 12.703125 -9.9375 C 13.242188 -10.476562 13.515625 -11.359375 13.515625 -12.578125 L 13.515625 -13.4375 C 13.515625 -14.632812 13.242188 -15.503906 12.703125 -16.046875 C 12.160156 -16.597656 11.28125 -16.875 10.0625 -16.875 L 4.140625 -16.875 Z M 4.140625 -9.125 "/></g></g></g><g fill="#ffffff" fill-opacity="1"><g transform="translate(152.001979, 27.360842)"><g><path d="M 7.359375 -0.03125 C 5.660156 -0.03125 4.398438 -0.40625 3.578125 -1.15625 C 2.765625 -1.90625 2.332031 -3.097656 2.28125 -4.734375 C 2.257812 -4.960938 2.320312 -5.144531 2.46875 -5.28125 C 2.613281 -5.425781 2.796875 -5.5 3.015625 -5.5 C 3.234375 -5.5 3.40625 -5.429688 3.53125 -5.296875 C 3.664062 -5.171875 3.742188 -4.992188 3.765625 -4.765625 C 3.804688 -3.546875 4.09375 -2.695312 4.625 -2.21875 C 5.15625 -1.75 6.066406 -1.515625 7.359375 -1.515625 L 11.46875 -1.515625 C 12.832031 -1.515625 13.773438 -1.773438 14.296875 -2.296875 C 14.816406 -2.816406 15.078125 -3.753906 15.078125 -5.109375 C 15.078125 -6.453125 14.8125 -7.382812 14.28125 -7.90625 C 13.75 -8.4375 12.8125 -8.703125 11.46875 -8.703125 L 7.5625 -8.703125 C 5.882812 -8.703125 4.65625 -9.085938 3.875 -9.859375 C 3.09375 -10.640625 2.703125 -11.867188 2.703125 -13.546875 C 2.703125 -15.203125 3.09375 -16.414062 3.875 -17.1875 C 4.65625 -17.96875 5.875 -18.359375 7.53125 -18.359375 L 11.546875 -18.359375 C 13.140625 -18.359375 14.320312 -18 15.09375 -17.28125 C 15.863281 -16.5625 16.28125 -15.441406 16.34375 -13.921875 C 16.363281 -13.691406 16.300781 -13.507812 16.15625 -13.375 C 16.007812 -13.238281 15.820312 -13.171875 15.59375 -13.171875 C 15.382812 -13.171875 15.210938 -13.238281 15.078125 -13.375 C 14.953125 -13.507812 14.878906 -13.679688 14.859375 -13.890625 C 14.835938 -14.992188 14.570312 -15.765625 14.0625 -16.203125 C 13.5625 -16.648438 12.722656 -16.875 11.546875 -16.875 L 7.53125 -16.875 C 6.289062 -16.875 5.421875 -16.625 4.921875 -16.125 C 4.429688 -15.632812 4.1875 -14.773438 4.1875 -13.546875 C 4.1875 -12.285156 4.429688 -11.410156 4.921875 -10.921875 C 5.421875 -10.429688 6.300781 -10.1875 7.5625 -10.1875 L 11.46875 -10.1875 C 13.226562 -10.1875 14.515625 -9.773438 15.328125 -8.953125 C 16.148438 -8.140625 16.5625 -6.859375 16.5625 -5.109375 C 16.5625 -3.359375 16.148438 -2.070312 15.328125 -1.25 C 14.515625 -0.4375 13.226562 -0.03125 11.46875 -0.03125 Z M 7.359375 -0.03125 "/></g></g></g><g fill="#ffffff" fill-opacity="1"><g transform="translate(178.142831, 27.360842)"><g/></g></g><g fill="#ffffff" fill-opacity="1"><g transform="translate(192.568886, 27.360842)"><g><path d="M 8.21875 0 C 6.144531 0 4.632812 -0.46875 3.6875 -1.40625 C 2.75 -2.351562 2.28125 -3.863281 2.28125 -5.9375 L 2.28125 -12.4375 C 2.28125 -14.507812 2.753906 -16.019531 3.703125 -16.96875 C 4.648438 -17.914062 6.144531 -18.378906 8.1875 -18.359375 L 11.640625 -18.359375 C 13.710938 -18.359375 15.21875 -17.882812 16.15625 -16.9375 C 17.09375 -15.988281 17.5625 -14.488281 17.5625 -12.4375 L 17.5625 -5.9375 C 17.5625 -3.863281 17.09375 -2.351562 16.15625 -1.40625 C 15.21875 -0.46875 13.710938 0 11.640625 0 Z M 11.640625 -1.484375 C 13.273438 -1.484375 14.421875 -1.816406 15.078125 -2.484375 C 15.742188 -3.148438 16.078125 -4.300781 16.078125 -5.9375 L 16.078125 -12.4375 C 16.078125 -14.070312 15.742188 -15.21875 15.078125 -15.875 C 14.421875 -16.539062 13.273438 -16.875 11.640625 -16.875 L 8.1875 -16.875 C 7.082031 -16.894531 6.210938 -16.757812 5.578125 -16.46875 C 4.941406 -16.1875 4.476562 -15.722656 4.1875 -15.078125 C 3.90625 -14.429688 3.765625 -13.550781 3.765625 -12.4375 L 3.765625 -5.9375 C 3.765625 -4.300781 4.097656 -3.148438 4.765625 -2.484375 C 5.429688 -1.816406 6.582031 -1.484375 8.21875 -1.484375 Z M 11.640625 -1.484375 "/></g></g></g><g fill="#ffffff" fill-opacity="1"><g transform="translate(219.707363, 27.360842)"><g><path d="M 3.390625 0 C 2.898438 0 2.65625 -0.242188 2.65625 -0.734375 L 2.65625 -17.625 C 2.65625 -18.113281 2.898438 -18.359375 3.390625 -18.359375 L 13.6875 -18.359375 C 14.175781 -18.359375 14.421875 -18.113281 14.421875 -17.625 C 14.421875 -17.125 14.175781 -16.875 13.6875 -16.875 L 4.140625 -16.875 L 4.140625 -10.03125 L 10.671875 -10.03125 C 11.160156 -10.03125 11.40625 -9.785156 11.40625 -9.296875 C 11.40625 -8.796875 11.160156 -8.546875 10.671875 -8.546875 L 4.140625 -8.546875 L 4.140625 -0.734375 C 4.140625 -0.242188 3.890625 0 3.390625 0 Z M 3.390625 0 "/></g></g></g><g fill="#ffffff" fill-opacity="1"><g transform="translate(241.430234, 27.360842)"><g/></g></g><g fill="#ffffff" fill-opacity="1"><g transform="translate(255.856288, 27.360842)"><g><path d="M 15.34375 -0.96875 C 15.4375 -0.8125 15.484375 -0.671875 15.484375 -0.546875 C 15.484375 -0.316406 15.347656 -0.125 15.078125 0.03125 C 14.929688 0.125 14.789062 0.171875 14.65625 0.171875 C 14.40625 0.171875 14.21875 0.046875 14.09375 -0.203125 L 9.375 -7.640625 L 4.140625 -7.640625 L 4.140625 -0.734375 C 4.140625 -0.242188 3.890625 0 3.390625 0 C 2.898438 0 2.65625 -0.242188 2.65625 -0.734375 L 2.65625 -17.625 C 2.65625 -18.113281 2.898438 -18.359375 3.390625 -18.359375 L 10.0625 -18.359375 C 11.675781 -18.359375 12.898438 -17.941406 13.734375 -17.109375 C 14.578125 -16.273438 15 -15.050781 15 -13.4375 L 15 -12.578125 C 15 -11.128906 14.671875 -9.992188 14.015625 -9.171875 C 13.359375 -8.359375 12.394531 -7.867188 11.125 -7.703125 Z M 4.140625 -9.125 L 10.0625 -9.125 C 11.28125 -9.125 12.160156 -9.394531 12.703125 -9.9375 C 13.242188 -10.476562 13.515625 -11.359375 13.515625 -12.578125 L 13.515625 -13.4375 C 13.515625 -14.632812 13.242188 -15.503906 12.703125 -16.046875 C 12.160156 -16.597656 11.28125 -16.875 10.0625 -16.875 L 4.140625 -16.875 Z M 4.140625 -9.125 "/></g></g></g><g fill="#ffffff" fill-opacity="1"><g transform="translate(280.030432, 27.360842)"><g><path d="M 3.390625 0 C 3.160156 0 2.976562 -0.0664062 2.84375 -0.203125 C 2.71875 -0.335938 2.65625 -0.515625 2.65625 -0.734375 L 2.65625 -17.625 C 2.65625 -17.851562 2.71875 -18.03125 2.84375 -18.15625 C 2.976562 -18.289062 3.160156 -18.359375 3.390625 -18.359375 C 3.617188 -18.359375 3.800781 -18.289062 3.9375 -18.15625 C 4.070312 -18.03125 4.140625 -17.851562 4.140625 -17.625 L 4.140625 -0.734375 C 4.140625 -0.515625 4.070312 -0.335938 3.9375 -0.203125 C 3.800781 -0.0664062 3.617188 0 3.390625 0 Z M 3.390625 0 "/></g></g></g><g fill="#ffffff" fill-opacity="1"><g transform="translate(294.114426, 27.360842)"><g><path d="M 7.359375 -0.03125 C 5.660156 -0.03125 4.398438 -0.40625 3.578125 -1.15625 C 2.765625 -1.90625 2.332031 -3.097656 2.28125 -4.734375 C 2.257812 -4.960938 2.320312 -5.144531 2.46875 -5.28125 C 2.613281 -5.425781 2.796875 -5.5 3.015625 -5.5 C 3.234375 -5.5 3.40625 -5.429688 3.53125 -5.296875 C 3.664062 -5.171875 3.742188 -4.992188 3.765625 -4.765625 C 3.804688 -3.546875 4.09375 -2.695312 4.625 -2.21875 C 5.15625 -1.75 6.066406 -1.515625 7.359375 -1.515625 L 11.46875 -1.515625 C 12.832031 -1.515625 13.773438 -1.773438 14.296875 -2.296875 C 14.816406 -2.816406 15.078125 -3.753906 15.078125 -5.109375 C 15.078125 -6.453125 14.8125 -7.382812 14.28125 -7.90625 C 13.75 -8.4375 12.8125 -8.703125 11.46875 -8.703125 L 7.5625 -8.703125 C 5.882812 -8.703125 4.65625 -9.085938 3.875 -9.859375 C 3.09375 -10.640625 2.703125 -11.867188 2.703125 -13.546875 C 2.703125 -15.203125 3.09375 -16.414062 3.875 -17.1875 C 4.65625 -17.96875 5.875 -18.359375 7.53125 -18.359375 L 11.546875 -18.359375 C 13.140625 -18.359375 14.320312 -18 15.09375 -17.28125 C 15.863281 -16.5625 16.28125 -15.441406 16.34375 -13.921875 C 16.363281 -13.691406 16.300781 -13.507812 16.15625 -13.375 C 16.007812 -13.238281 15.820312 -13.171875 15.59375 -13.171875 C 15.382812 -13.171875 15.210938 -13.238281 15.078125 -13.375 C 14.953125 -13.507812 14.878906 -13.679688 14.859375 -13.890625 C 14.835938 -14.992188 14.570312 -15.765625 14.0625 -16.203125 C 13.5625 -16.648438 12.722656 -16.875 11.546875 -16.875 L 7.53125 -16.875 C 6.289062 -16.875 5.421875 -16.625 4.921875 -16.125 C 4.429688 -15.632812 4.1875 -14.773438 4.1875 -13.546875 C 4.1875 -12.285156 4.429688 -11.410156 4.921875 -10.921875 C 5.421875 -10.429688 6.300781 -10.1875 7.5625 -10.1875 L 11.46875 -10.1875 C 13.226562 -10.1875 14.515625 -9.773438 15.328125 -8.953125 C 16.148438 -8.140625 16.5625 -6.859375 16.5625 -5.109375 C 16.5625 -3.359375 16.148438 -2.070312 15.328125 -1.25 C 14.515625 -0.4375 13.226562 -0.03125 11.46875 -0.03125 Z M 7.359375 -0.03125 "/></g></g></g><g fill="#ffffff" fill-opacity="1"><g transform="translate(320.255293, 27.360842)"><g><path d="M 14.828125 -1.171875 C 14.960938 -1.015625 15.03125 -0.851562 15.03125 -0.6875 C 15.03125 -0.476562 14.925781 -0.285156 14.71875 -0.109375 C 14.5625 0.015625 14.398438 0.078125 14.234375 0.078125 C 14.035156 0.078125 13.851562 -0.0234375 13.6875 -0.234375 L 6.265625 -9.4375 L 4.140625 -7.25 L 4.140625 -0.734375 C 4.140625 -0.242188 3.890625 0 3.390625 0 C 2.898438 0 2.65625 -0.242188 2.65625 -0.734375 L 2.65625 -17.625 C 2.65625 -18.113281 2.898438 -18.359375 3.390625 -18.359375 C 3.890625 -18.359375 4.140625 -18.113281 4.140625 -17.625 L 4.140625 -9.375 L 12.625 -18.109375 C 12.800781 -18.273438 12.972656 -18.359375 13.140625 -18.359375 C 13.316406 -18.359375 13.488281 -18.273438 13.65625 -18.109375 C 13.832031 -17.929688 13.921875 -17.75 13.921875 -17.5625 C 13.921875 -17.414062 13.84375 -17.242188 13.6875 -17.046875 L 7.296875 -10.5 Z M 14.828125 -1.171875 "/></g></g></g></g></g></g></g></g></svg>