<svg xmlns="http://www.w3.org/2000/svg" xmlns:xlink="http://www.w3.org/1999/xlink" width="500" zoomAndPan="magnify" viewBox="0 0 375 374.999991" height="500" preserveAspectRatio="xMidYMid meet" version="1.0"><defs><filter x="0%" y="0%" width="100%" height="100%" id="9213a94e67"><feColorMatrix values="0 0 0 0 1 0 0 0 0 1 0 0 0 0 1 0 0 0 1 0" color-interpolation-filters="sRGB"/></filter><g/><clipPath id="7b2f2ab764"><path d="M 16.703125 47 L 100.960938 47 L 100.960938 175 L 16.703125 175 Z M 16.703125 47 " clip-rule="nonzero"/></clipPath><clipPath id="d5ac3c8a7e"><path d="M 58.515625 126.371094 L 36.835938 47.75 L 16.785156 47.75 L 16.785156 174.585938 L 32.789062 174.585938 L 32.789062 82 L 50.210938 147.039062 L 66.828125 147.039062 L 84.25 81.792969 L 84.25 174.585938 L 100.253906 174.585938 L 100.253906 47.75 L 80.203125 47.75 Z M 58.515625 126.371094 " clip-rule="nonzero"/></clipPath><clipPath id="a9d228fd1b"><path d="M 0.761719 0.71875 L 84.28125 0.71875 L 84.28125 127.679688 L 0.761719 127.679688 Z M 0.761719 0.71875 " clip-rule="nonzero"/></clipPath><clipPath id="301bb5bdb8"><path d="M 42.515625 79.371094 L 20.835938 0.75 L 0.785156 0.75 L 0.785156 127.585938 L 16.789062 127.585938 L 16.789062 35 L 34.210938 100.039062 L 50.828125 100.039062 L 68.25 34.792969 L 68.25 127.585938 L 84.253906 127.585938 L 84.253906 0.75 L 64.203125 0.75 Z M 42.515625 79.371094 " clip-rule="nonzero"/></clipPath><clipPath id="f364e4c33f"><rect x="0" width="85" y="0" height="128"/></clipPath><clipPath id="d18de6a989"><path d="M 126 47 L 187 47 L 187 175 L 126 175 Z M 126 47 " clip-rule="nonzero"/></clipPath><clipPath id="1e75bc44fe"><path d="M 167.925781 47.75 L 145.4375 47.75 C 138.824219 47.75 133.992188 49.265625 130.949219 52.308594 C 127.910156 55.351562 126.394531 59.769531 126.394531 65.585938 L 126.394531 156.765625 C 126.394531 162.578125 127.910156 166.996094 130.949219 170.039062 C 133.992188 173.082031 138.824219 174.597656 145.4375 174.597656 L 167.925781 174.597656 C 174.542969 174.597656 179.371094 173.082031 182.414062 170.039062 C 185.457031 166.996094 186.972656 162.578125 186.972656 156.765625 L 186.972656 65.585938 C 186.972656 59.78125 185.457031 55.351562 182.414062 52.308594 C 179.371094 49.265625 174.542969 47.75 167.925781 47.75 Z M 168.535156 136.09375 L 168.535156 153.925781 C 168.535156 156.222656 168.164062 157.78125 167.417969 158.582031 C 166.671875 159.382812 165.015625 159.796875 162.460938 159.796875 L 150.90625 159.796875 C 148.46875 159.796875 146.855469 159.394531 146.042969 158.582031 C 145.234375 157.769531 144.832031 156.222656 144.832031 153.925781 L 144.832031 68.421875 C 144.832031 65.984375 145.234375 64.40625 146.042969 63.65625 C 146.855469 62.910156 148.480469 62.542969 150.90625 62.542969 L 162.460938 62.542969 C 165.027344 62.542969 166.683594 62.921875 167.417969 63.65625 C 168.15625 64.394531 168.535156 65.984375 168.535156 68.421875 Z M 168.535156 136.09375 " clip-rule="nonzero"/></clipPath><clipPath id="715680e094"><path d="M 0.199219 0.71875 L 61 0.71875 L 61 127.679688 L 0.199219 127.679688 Z M 0.199219 0.71875 " clip-rule="nonzero"/></clipPath><clipPath id="234554defb"><path d="M 41.925781 0.75 L 19.4375 0.75 C 12.824219 0.75 7.992188 2.265625 4.949219 5.308594 C 1.910156 8.351562 0.394531 12.769531 0.394531 18.585938 L 0.394531 109.765625 C 0.394531 115.578125 1.910156 119.996094 4.949219 123.039062 C 7.992188 126.082031 12.824219 127.597656 19.4375 127.597656 L 41.925781 127.597656 C 48.542969 127.597656 53.371094 126.082031 56.414062 123.039062 C 59.457031 119.996094 60.972656 115.578125 60.972656 109.765625 L 60.972656 18.585938 C 60.972656 12.78125 59.457031 8.351562 56.414062 5.308594 C 53.371094 2.265625 48.542969 0.75 41.925781 0.75 Z M 42.535156 89.09375 L 42.535156 106.925781 C 42.535156 109.222656 42.164062 110.78125 41.417969 111.582031 C 40.671875 112.382812 39.015625 112.796875 36.460938 112.796875 L 24.90625 112.796875 C 22.46875 112.796875 20.855469 112.394531 20.042969 111.582031 C 19.234375 110.769531 18.832031 109.222656 18.832031 106.925781 L 18.832031 21.421875 C 18.832031 18.984375 19.234375 17.40625 20.042969 16.65625 C 20.855469 15.910156 22.480469 15.542969 24.90625 15.542969 L 36.460938 15.542969 C 39.027344 15.542969 40.683594 15.921875 41.417969 16.65625 C 42.15625 17.394531 42.535156 18.984375 42.535156 21.421875 Z M 42.535156 89.09375 " clip-rule="nonzero"/></clipPath><clipPath id="81dbdd6a14"><rect x="0" width="61" y="0" height="128"/></clipPath><clipPath id="006cbc4be7"><path d="M 213 47 L 280.273438 47 L 280.273438 175 L 213 175 Z M 213 47 " clip-rule="nonzero"/></clipPath><clipPath id="abd337c0f4"><path d="M 260.320312 174.585938 L 280.175781 174.585938 L 259.984375 122.929688 C 263.9375 122.300781 266.988281 120.914062 269.132812 118.757812 C 272.175781 115.714844 273.691406 111.234375 273.691406 105.289062 L 273.691406 65.585938 C 273.691406 59.78125 272.175781 55.351562 269.132812 52.308594 C 266.089844 49.265625 261.261719 47.75 254.644531 47.75 L 213.109375 47.75 L 213.109375 174.585938 L 231.34375 174.585938 L 231.34375 123.328125 L 241.339844 123.328125 Z M 231.34375 62.542969 L 249.175781 62.542969 C 251.742188 62.542969 253.402344 62.921875 254.136719 63.65625 C 254.871094 64.394531 255.253906 65.984375 255.253906 68.421875 L 255.253906 102.863281 C 255.253906 105.160156 254.871094 106.71875 254.136719 107.519531 C 253.402344 108.320312 251.734375 108.734375 249.175781 108.734375 L 231.34375 108.734375 Z M 231.34375 62.542969 " clip-rule="nonzero"/></clipPath><clipPath id="f6053a14ac"><path d="M 0.078125 0.71875 L 67.273438 0.71875 L 67.273438 127.679688 L 0.078125 127.679688 Z M 0.078125 0.71875 " clip-rule="nonzero"/></clipPath><clipPath id="e2d5992b09"><path d="M 47.320312 127.585938 L 67.175781 127.585938 L 46.984375 75.929688 C 50.9375 75.300781 53.988281 73.914062 56.132812 71.757812 C 59.175781 68.714844 60.691406 64.234375 60.691406 58.289062 L 60.691406 18.585938 C 60.691406 12.78125 59.175781 8.351562 56.132812 5.308594 C 53.089844 2.265625 48.261719 0.75 41.644531 0.75 L 0.109375 0.75 L 0.109375 127.585938 L 18.34375 127.585938 L 18.34375 76.328125 L 28.339844 76.328125 Z M 18.34375 15.542969 L 36.175781 15.542969 C 38.742188 15.542969 40.402344 15.921875 41.136719 16.65625 C 41.871094 17.394531 42.253906 18.984375 42.253906 21.421875 L 42.253906 55.863281 C 42.253906 58.160156 41.871094 59.71875 41.136719 60.519531 C 40.402344 61.320312 38.734375 61.734375 36.175781 61.734375 L 18.34375 61.734375 Z M 18.34375 15.542969 " clip-rule="nonzero"/></clipPath><clipPath id="bec7c8ec25"><rect x="0" width="68" y="0" height="128"/></clipPath><clipPath id="86772a2820"><path d="M 16.703125 200.339844 L 41 200.339844 L 41 252 L 16.703125 252 Z M 16.703125 200.339844 " clip-rule="nonzero"/></clipPath><clipPath id="afe3b95060"><path d="M 33.035156 200.722656 L 24.386719 200.722656 C 21.777344 200.722656 19.847656 201.339844 18.625 202.566406 C 17.402344 203.789062 16.785156 205.574219 16.785156 207.914062 L 16.785156 244.652344 C 16.785156 247.042969 17.402344 248.851562 18.625 250.078125 C 19.847656 251.300781 21.765625 251.917969 24.386719 251.917969 L 33.035156 251.917969 C 35.699219 251.917969 37.648438 251.300781 38.875 250.078125 C 40.097656 248.851562 40.714844 247.042969 40.714844 244.652344 L 40.714844 236 L 33.199219 236 L 33.199219 243.753906 C 33.199219 244.683594 33.046875 245.300781 32.753906 245.625 C 32.464844 245.949219 31.8125 246.113281 30.839844 246.113281 L 26.671875 246.113281 C 25.695312 246.113281 25.035156 245.949219 24.710938 245.625 C 24.386719 245.300781 24.222656 244.671875 24.222656 243.753906 L 24.222656 208.886719 C 24.222656 207.914062 24.386719 207.273438 24.710938 206.972656 C 25.035156 206.667969 25.683594 206.527344 26.671875 206.527344 L 30.839844 206.527344 C 31.8125 206.527344 32.464844 206.679688 32.753906 206.972656 C 33.046875 207.265625 33.199219 207.914062 33.199219 208.886719 L 33.199219 216.726562 L 40.714844 216.726562 L 40.714844 207.914062 C 40.714844 205.574219 40.097656 203.789062 38.875 202.566406 C 37.648438 201.339844 35.699219 200.722656 33.035156 200.722656 Z M 33.035156 200.722656 " clip-rule="nonzero"/></clipPath><clipPath id="34d0924271"><path d="M 0.761719 0.601562 L 24.761719 0.601562 L 24.761719 51.960938 L 0.761719 51.960938 Z M 0.761719 0.601562 " clip-rule="nonzero"/></clipPath><clipPath id="19a47352ea"><path d="M 17.035156 0.722656 L 8.386719 0.722656 C 5.777344 0.722656 3.847656 1.339844 2.625 2.566406 C 1.402344 3.789062 0.785156 5.574219 0.785156 7.914062 L 0.785156 44.652344 C 0.785156 47.042969 1.402344 48.851562 2.625 50.078125 C 3.847656 51.300781 5.765625 51.917969 8.386719 51.917969 L 17.035156 51.917969 C 19.699219 51.917969 21.648438 51.300781 22.875 50.078125 C 24.097656 48.851562 24.714844 47.042969 24.714844 44.652344 L 24.714844 36 L 17.199219 36 L 17.199219 43.753906 C 17.199219 44.683594 17.046875 45.300781 16.753906 45.625 C 16.464844 45.949219 15.8125 46.113281 14.839844 46.113281 L 10.671875 46.113281 C 9.695312 46.113281 9.035156 45.949219 8.710938 45.625 C 8.386719 45.300781 8.222656 44.671875 8.222656 43.753906 L 8.222656 8.886719 C 8.222656 7.914062 8.386719 7.273438 8.710938 6.972656 C 9.035156 6.667969 9.683594 6.527344 10.671875 6.527344 L 14.839844 6.527344 C 15.8125 6.527344 16.464844 6.679688 16.753906 6.972656 C 17.046875 7.265625 17.199219 7.914062 17.199219 8.886719 L 17.199219 16.726562 L 24.714844 16.726562 L 24.714844 7.914062 C 24.714844 5.574219 24.097656 3.789062 22.875 2.566406 C 21.648438 1.339844 19.699219 0.722656 17.035156 0.722656 Z M 17.035156 0.722656 " clip-rule="nonzero"/></clipPath><clipPath id="b5a6e1a71f"><rect x="0" width="25" y="0" height="52"/></clipPath><clipPath id="a1729764c2"><path d="M 72 200.339844 L 102 200.339844 L 102 252 L 72 252 Z M 72 200.339844 " clip-rule="nonzero"/></clipPath><clipPath id="e3f766a00e"><path d="M 93.941406 200.722656 L 87.25 228.886719 L 80.148438 200.722656 L 72.632812 200.722656 L 83.570312 235.699219 L 83.570312 251.832031 L 90.996094 251.832031 L 90.996094 235.664062 L 101.445312 200.722656 Z M 93.941406 200.722656 " clip-rule="nonzero"/></clipPath><clipPath id="543528dafa"><path d="M 0.441406 0.601562 L 29.480469 0.601562 L 29.480469 51.960938 L 0.441406 51.960938 Z M 0.441406 0.601562 " clip-rule="nonzero"/></clipPath><clipPath id="baf91078ce"><path d="M 21.941406 0.722656 L 15.25 28.886719 L 8.148438 0.722656 L 0.632812 0.722656 L 11.570312 35.699219 L 11.570312 51.832031 L 18.996094 51.832031 L 18.996094 35.664062 L 29.445312 0.722656 Z M 21.941406 0.722656 " clip-rule="nonzero"/></clipPath><clipPath id="686a06fdd8"><rect x="0" width="30" y="0" height="52"/></clipPath><clipPath id="bf64e414e5"><path d="M 134.445312 200.339844 L 160 200.339844 L 160 252 L 134.445312 252 Z M 134.445312 200.339844 " clip-rule="nonzero"/></clipPath><clipPath id="0594f32c01"><path d="M 152.324219 200.722656 L 134.601562 200.722656 L 134.601562 251.832031 L 152.3125 251.832031 C 154.976562 251.832031 156.925781 251.214844 158.148438 249.988281 C 159.375 248.765625 159.992188 246.980469 159.992188 244.640625 L 159.992188 230.683594 C 159.992188 229.320312 159.71875 228.257812 159.179688 227.5 C 158.636719 226.742188 157.8125 226.222656 156.730469 225.953125 C 157.824219 225.683594 158.636719 225.109375 159.179688 224.242188 C 159.71875 223.375 159.992188 222.261719 159.992188 220.894531 L 159.992188 207.914062 C 159.992188 205.574219 159.375 203.789062 158.148438 202.566406 C 156.925781 201.339844 154.976562 200.722656 152.3125 200.722656 Z M 152.574219 243.667969 C 152.574219 244.597656 152.421875 245.214844 152.128906 245.539062 C 151.835938 245.863281 151.167969 246.027344 150.125 246.027344 L 142.039062 246.027344 L 142.039062 228.722656 L 150.125 228.722656 C 151.15625 228.722656 151.828125 228.875 152.128906 229.167969 C 152.433594 229.460938 152.574219 230.109375 152.574219 231.085938 Z M 152.574219 220.558594 C 152.574219 221.492188 152.421875 222.109375 152.128906 222.433594 C 151.835938 222.757812 151.167969 222.921875 150.125 222.921875 L 142.039062 222.921875 L 142.039062 206.515625 L 150.125 206.515625 C 151.15625 206.515625 151.828125 206.667969 152.128906 206.960938 C 152.433594 207.253906 152.574219 207.902344 152.574219 208.878906 Z M 152.574219 220.558594 " clip-rule="nonzero"/></clipPath><clipPath id="056dbd9a5b"><path d="M 0.445312 0.601562 L 26 0.601562 L 26 51.960938 L 0.445312 51.960938 Z M 0.445312 0.601562 " clip-rule="nonzero"/></clipPath><clipPath id="820934a0e5"><path d="M 18.324219 0.722656 L 0.601562 0.722656 L 0.601562 51.832031 L 18.3125 51.832031 C 20.976562 51.832031 22.925781 51.214844 24.148438 49.988281 C 25.375 48.765625 25.992188 46.980469 25.992188 44.640625 L 25.992188 30.683594 C 25.992188 29.320312 25.71875 28.257812 25.179688 27.5 C 24.636719 26.742188 23.8125 26.222656 22.730469 25.953125 C 23.824219 25.683594 24.636719 25.109375 25.179688 24.242188 C 25.71875 23.375 25.992188 22.261719 25.992188 20.894531 L 25.992188 7.914062 C 25.992188 5.574219 25.375 3.789062 24.148438 2.566406 C 22.925781 1.339844 20.976562 0.722656 18.3125 0.722656 Z M 18.574219 43.667969 C 18.574219 44.597656 18.421875 45.214844 18.128906 45.539062 C 17.835938 45.863281 17.167969 46.027344 16.125 46.027344 L 8.039062 46.027344 L 8.039062 28.722656 L 16.125 28.722656 C 17.15625 28.722656 17.828125 28.875 18.128906 29.167969 C 18.433594 29.460938 18.574219 30.109375 18.574219 31.085938 Z M 18.574219 20.558594 C 18.574219 21.492188 18.421875 22.109375 18.128906 22.433594 C 17.835938 22.757812 17.167969 22.921875 16.125 22.921875 L 8.039062 22.921875 L 8.039062 6.515625 L 16.125 6.515625 C 17.15625 6.515625 17.828125 6.667969 18.128906 6.960938 C 18.433594 7.253906 18.574219 7.902344 18.574219 8.878906 Z M 18.574219 20.558594 " clip-rule="nonzero"/></clipPath><clipPath id="b3fff649bb"><rect x="0" width="26" y="0" height="52"/></clipPath><clipPath id="472fc672e4"><path d="M 196.578125 200.734375 L 218.210938 200.734375 L 218.210938 206.691406 L 196.578125 206.691406 Z M 196.578125 206.691406 L 204.003906 206.691406 L 204.003906 222.445312 L 196.578125 222.445312 Z M 196.578125 222.445312 L 215.765625 222.445312 L 215.765625 228.398438 L 196.578125 228.398438 Z M 196.578125 228.398438 L 204.003906 228.398438 L 204.003906 245.886719 L 196.578125 245.886719 Z M 196.578125 245.886719 L 218.785156 245.886719 L 218.785156 251.839844 L 196.578125 251.839844 Z M 196.578125 245.886719 " clip-rule="nonzero"/></clipPath><clipPath id="655c7ca2c6"><path d="M 0.578125 0.734375 L 22.210938 0.734375 L 22.210938 6.691406 L 0.578125 6.691406 Z M 0.578125 6.691406 L 8.003906 6.691406 L 8.003906 22.445312 L 0.578125 22.445312 Z M 0.578125 22.445312 L 19.765625 22.445312 L 19.765625 28.398438 L 0.578125 28.398438 Z M 0.578125 28.398438 L 8.003906 28.398438 L 8.003906 45.886719 L 0.578125 45.886719 Z M 0.578125 45.886719 L 22.785156 45.886719 L 22.785156 51.839844 L 0.578125 51.839844 Z M 0.578125 45.886719 " clip-rule="nonzero"/></clipPath><clipPath id="4f1957b22f"><rect x="0" width="23" y="0" height="52"/></clipPath><clipPath id="b79dc29026"><path d="M 253 200.339844 L 280.273438 200.339844 L 280.273438 252 L 253 252 Z M 253 200.339844 " clip-rule="nonzero"/></clipPath><clipPath id="d3384961cb"><path d="M 272.175781 251.832031 L 280.175781 251.832031 L 272.035156 231.019531 C 273.625 230.769531 274.859375 230.207031 275.726562 229.339844 C 276.949219 228.117188 277.566406 226.308594 277.566406 223.917969 L 277.566406 207.914062 C 277.566406 205.574219 276.949219 203.789062 275.726562 202.566406 C 274.503906 201.339844 272.554688 200.722656 269.890625 200.722656 L 253.152344 200.722656 L 253.152344 251.832031 L 260.503906 251.832031 L 260.503906 231.183594 L 264.53125 231.183594 L 272.175781 251.839844 Z M 260.503906 206.679688 L 267.691406 206.679688 C 268.722656 206.679688 269.394531 206.832031 269.695312 207.125 C 270 207.414062 270.140625 208.066406 270.140625 209.039062 L 270.140625 222.921875 C 270.140625 223.851562 269.988281 224.46875 269.695312 224.792969 C 269.402344 225.117188 268.730469 225.28125 267.691406 225.28125 L 260.503906 225.28125 Z M 260.503906 206.679688 " clip-rule="nonzero"/></clipPath><clipPath id="21dd3fdbec"><path d="M 0 0.601562 L 27.273438 0.601562 L 27.273438 51.960938 L 0 51.960938 Z M 0 0.601562 " clip-rule="nonzero"/></clipPath><clipPath id="ebf420f775"><path d="M 19.175781 51.832031 L 27.175781 51.832031 L 19.035156 31.019531 C 20.625 30.769531 21.859375 30.207031 22.726562 29.339844 C 23.949219 28.117188 24.566406 26.308594 24.566406 23.917969 L 24.566406 7.914062 C 24.566406 5.574219 23.949219 3.789062 22.726562 2.566406 C 21.503906 1.339844 19.554688 0.722656 16.890625 0.722656 L 0.152344 0.722656 L 0.152344 51.832031 L 7.503906 51.832031 L 7.503906 31.183594 L 11.53125 31.183594 L 19.175781 51.839844 Z M 7.503906 6.679688 L 14.691406 6.679688 C 15.722656 6.679688 16.394531 6.832031 16.695312 7.125 C 17 7.414062 17.140625 8.066406 17.140625 9.039062 L 17.140625 22.921875 C 17.140625 23.851562 16.988281 24.46875 16.695312 24.792969 C 16.402344 25.117188 15.730469 25.28125 14.691406 25.28125 L 7.503906 25.28125 Z M 7.503906 6.679688 " clip-rule="nonzero"/></clipPath><clipPath id="8291aeb781"><rect x="0" width="28" y="0" height="52"/></clipPath><mask id="7b9ca4db41"><g filter="url(#9213a94e67)"><rect x="-119.5" width="540" fill="#000000" y="-119.499998" height="539.999987" fill-opacity="0.5"/></g></mask><clipPath id="7ea155ecd1"><rect x="0" width="273" y="0" height="28"/></clipPath><clipPath id="87656def04"><rect x="0" width="297" y="0" height="297"/></clipPath></defs><g transform="matrix(1, 0, 0, 1, 37, 37)"><g clip-path="url(#87656def04)"><g clip-path="url(#7b2f2ab764)"><g clip-path="url(#d5ac3c8a7e)"><g transform="matrix(1, 0, 0, 1, 16, 47)"><g clip-path="url(#f364e4c33f)"><g clip-path="url(#a9d228fd1b)"><g clip-path="url(#301bb5bdb8)"><rect x="-189.5" width="648" fill="#ffffff" y="-220.499997" height="647.999984" fill-opacity="1"/></g></g></g></g></g></g><g clip-path="url(#d18de6a989)"><g clip-path="url(#1e75bc44fe)"><g transform="matrix(1, 0, 0, 1, 126, 47)"><g clip-path="url(#81dbdd6a14)"><g clip-path="url(#715680e094)"><g clip-path="url(#234554defb)"><rect x="-299.5" width="648" fill="#ffffff" y="-220.499997" height="647.999984" fill-opacity="1"/></g></g></g></g></g></g><g clip-path="url(#006cbc4be7)"><g clip-path="url(#abd337c0f4)"><g transform="matrix(1, 0, 0, 1, 213, 47)"><g clip-path="url(#bec7c8ec25)"><g clip-path="url(#f6053a14ac)"><g clip-path="url(#e2d5992b09)"><rect x="-386.5" width="648" fill="#ffffff" y="-220.499997" height="647.999984" fill-opacity="1"/></g></g></g></g></g></g><g clip-path="url(#86772a2820)"><g clip-path="url(#afe3b95060)"><g transform="matrix(1, 0, 0, 1, 16, 200)"><g clip-path="url(#b5a6e1a71f)"><g clip-path="url(#34d0924271)"><g clip-path="url(#19a47352ea)"><rect x="-189.5" width="648" fill="#ffffff" y="-373.499997" height="647.999984" fill-opacity="1"/></g></g></g></g></g></g><g clip-path="url(#a1729764c2)"><g clip-path="url(#e3f766a00e)"><g transform="matrix(1, 0, 0, 1, 72, 200)"><g clip-path="url(#686a06fdd8)"><g clip-path="url(#543528dafa)"><g clip-path="url(#baf91078ce)"><rect x="-245.5" width="648" fill="#ffffff" y="-373.499997" height="647.999984" fill-opacity="1"/></g></g></g></g></g></g><g clip-path="url(#bf64e414e5)"><g clip-path="url(#0594f32c01)"><g transform="matrix(1, 0, 0, 1, 134, 200)"><g clip-path="url(#b3fff649bb)"><g clip-path="url(#056dbd9a5b)"><g clip-path="url(#820934a0e5)"><rect x="-307.5" width="648" fill="#ffffff" y="-373.499997" height="647.999984" fill-opacity="1"/></g></g></g></g></g></g><g clip-path="url(#472fc672e4)"><g transform="matrix(1, 0, 0, 1, 196, 200)"><g clip-path="url(#4f1957b22f)"><g clip-path="url(#655c7ca2c6)"><rect x="-369.5" width="648" fill="#ffffff" y="-373.499997" height="647.999984" fill-opacity="1"/></g></g></g></g><g clip-path="url(#b79dc29026)"><g clip-path="url(#d3384961cb)"><g transform="matrix(1, 0, 0, 1, 253, 200)"><g clip-path="url(#8291aeb781)"><g clip-path="url(#21dd3fdbec)"><g clip-path="url(#ebf420f775)"><rect x="-426.5" width="648" fill="#ffffff" y="-373.499997" height="647.999984" fill-opacity="1"/></g></g></g></g></g></g><g mask="url(#7b9ca4db41)"><g transform="matrix(1, 0, 0, 1, 15, 268)"><g clip-path="url(#7ea155ecd1)"><g fill="#ffffff" fill-opacity="1"><g transform="translate(0.948038, 21.659484)"><g><path d="M 15 -14.484375 C 15.351562 -14.484375 15.53125 -14.289062 15.53125 -13.90625 L 15.53125 -0.578125 C 15.53125 -0.191406 15.332031 0 14.9375 0 C 14.550781 0 14.359375 -0.191406 14.359375 -0.578125 L 14.359375 -12.0625 L 9.5 -4.6875 C 9.34375 -4.425781 9.109375 -4.296875 8.796875 -4.296875 C 8.523438 -4.296875 8.304688 -4.425781 8.140625 -4.6875 L 3.265625 -12.125 L 3.265625 -0.578125 C 3.265625 -0.191406 3.066406 0 2.671875 0 C 2.285156 0 2.09375 -0.191406 2.09375 -0.578125 L 2.09375 -13.90625 C 2.09375 -14.289062 2.285156 -14.484375 2.671875 -14.484375 C 2.972656 -14.484375 3.203125 -14.359375 3.359375 -14.109375 L 8.84375 -5.71875 L 14.3125 -14.109375 C 14.457031 -14.359375 14.6875 -14.484375 15 -14.484375 Z M 15 -14.484375 "/></g></g></g><g fill="#ffffff" fill-opacity="1"><g transform="translate(24.324979, 21.659484)"><g><path d="M 13.15625 -0.828125 C 13.207031 -0.722656 13.234375 -0.628906 13.234375 -0.546875 C 13.234375 -0.347656 13.101562 -0.1875 12.84375 -0.0625 C 12.757812 -0.0195312 12.664062 0 12.5625 0 C 12.34375 0 12.191406 -0.117188 12.109375 -0.359375 L 10.59375 -3.921875 L 3.234375 -3.921875 L 1.734375 -0.359375 C 1.628906 -0.117188 1.460938 0 1.234375 0 C 1.160156 0 1.0625 -0.0195312 0.9375 -0.0625 C 0.695312 -0.15625 0.578125 -0.320312 0.578125 -0.5625 C 0.578125 -0.6875 0.59375 -0.773438 0.625 -0.828125 L 6.203125 -14.046875 C 6.328125 -14.335938 6.554688 -14.484375 6.890625 -14.484375 L 6.9375 -14.484375 C 7.226562 -14.484375 7.441406 -14.335938 7.578125 -14.046875 Z M 3.71875 -5.078125 L 10.109375 -5.078125 L 6.90625 -12.640625 Z M 3.71875 -5.078125 "/></g></g></g><g fill="#ffffff" fill-opacity="1"><g transform="translate(43.877456, 21.659484)"><g><path d="M 5.8125 -0.015625 C 4.46875 -0.015625 3.472656 -0.3125 2.828125 -0.90625 C 2.191406 -1.5 1.847656 -2.441406 1.796875 -3.734375 C 1.785156 -3.910156 1.832031 -4.054688 1.9375 -4.171875 C 2.050781 -4.285156 2.203125 -4.34375 2.390625 -4.34375 C 2.546875 -4.34375 2.675781 -4.289062 2.78125 -4.1875 C 2.894531 -4.082031 2.957031 -3.9375 2.96875 -3.75 C 3 -2.789062 3.222656 -2.125 3.640625 -1.75 C 4.066406 -1.375 4.789062 -1.1875 5.8125 -1.1875 L 9.046875 -1.1875 C 10.128906 -1.1875 10.875 -1.394531 11.28125 -1.8125 C 11.695312 -2.226562 11.90625 -2.96875 11.90625 -4.03125 C 11.90625 -5.09375 11.691406 -5.828125 11.265625 -6.234375 C 10.847656 -6.648438 10.109375 -6.859375 9.046875 -6.859375 L 5.96875 -6.859375 C 4.644531 -6.859375 3.675781 -7.164062 3.0625 -7.78125 C 2.445312 -8.394531 2.140625 -9.363281 2.140625 -10.6875 C 2.140625 -11.988281 2.445312 -12.945312 3.0625 -13.5625 C 3.675781 -14.175781 4.632812 -14.484375 5.9375 -14.484375 L 9.109375 -14.484375 C 10.367188 -14.484375 11.300781 -14.195312 11.90625 -13.625 C 12.519531 -13.0625 12.847656 -12.179688 12.890625 -10.984375 C 12.910156 -10.796875 12.863281 -10.648438 12.75 -10.546875 C 12.632812 -10.441406 12.488281 -10.390625 12.3125 -10.390625 C 12.144531 -10.390625 12.007812 -10.441406 11.90625 -10.546875 C 11.800781 -10.648438 11.738281 -10.785156 11.71875 -10.953125 C 11.707031 -11.828125 11.5 -12.4375 11.09375 -12.78125 C 10.695312 -13.132812 10.035156 -13.3125 9.109375 -13.3125 L 5.9375 -13.3125 C 4.96875 -13.3125 4.285156 -13.117188 3.890625 -12.734375 C 3.503906 -12.347656 3.3125 -11.664062 3.3125 -10.6875 C 3.3125 -9.695312 3.503906 -9.003906 3.890625 -8.609375 C 4.285156 -8.222656 4.976562 -8.03125 5.96875 -8.03125 L 9.046875 -8.03125 C 10.441406 -8.03125 11.460938 -7.707031 12.109375 -7.0625 C 12.753906 -6.414062 13.078125 -5.40625 13.078125 -4.03125 C 13.078125 -2.644531 12.753906 -1.628906 12.109375 -0.984375 C 11.460938 -0.335938 10.441406 -0.015625 9.046875 -0.015625 Z M 5.8125 -0.015625 "/></g></g></g><g fill="#ffffff" fill-opacity="1"><g transform="translate(64.509777, 21.659484)"><g><path d="M 6.375 0.015625 C 6.207031 0.015625 6.066406 -0.0351562 5.953125 -0.140625 C 5.835938 -0.253906 5.78125 -0.394531 5.78125 -0.5625 L 5.78125 -13.3125 L 0.984375 -13.3125 C 0.828125 -13.3125 0.691406 -13.367188 0.578125 -13.484375 C 0.460938 -13.597656 0.40625 -13.738281 0.40625 -13.90625 C 0.40625 -14.082031 0.460938 -14.222656 0.578125 -14.328125 C 0.691406 -14.429688 0.828125 -14.484375 0.984375 -14.484375 L 11.75 -14.484375 C 11.925781 -14.484375 12.066406 -14.429688 12.171875 -14.328125 C 12.273438 -14.222656 12.328125 -14.082031 12.328125 -13.90625 C 12.328125 -13.738281 12.273438 -13.597656 12.171875 -13.484375 C 12.066406 -13.367188 11.925781 -13.3125 11.75 -13.3125 L 6.953125 -13.3125 L 6.953125 -0.5625 C 6.953125 -0.394531 6.898438 -0.253906 6.796875 -0.140625 C 6.691406 -0.0351562 6.550781 0.015625 6.375 0.015625 Z M 6.375 0.015625 "/></g></g></g><g fill="#ffffff" fill-opacity="1"><g transform="translate(83.0274, 21.659484)"><g><path d="M 11.109375 -1.171875 C 11.503906 -1.171875 11.703125 -0.972656 11.703125 -0.578125 C 11.703125 -0.191406 11.503906 0 11.109375 0 L 2.671875 0 C 2.285156 0 2.09375 -0.191406 2.09375 -0.578125 L 2.09375 -13.90625 C 2.09375 -14.289062 2.285156 -14.484375 2.671875 -14.484375 L 11.109375 -14.484375 C 11.503906 -14.484375 11.703125 -14.289062 11.703125 -13.90625 C 11.703125 -13.507812 11.503906 -13.3125 11.109375 -13.3125 L 3.265625 -13.3125 L 3.265625 -7.921875 L 8.453125 -7.921875 C 8.847656 -7.921875 9.046875 -7.722656 9.046875 -7.328125 C 9.046875 -6.941406 8.847656 -6.75 8.453125 -6.75 L 3.265625 -6.75 L 3.265625 -1.171875 Z M 11.109375 -1.171875 "/></g></g></g><g fill="#ffffff" fill-opacity="1"><g transform="translate(101.387542, 21.659484)"><g><path d="M 12.109375 -0.765625 C 12.179688 -0.640625 12.21875 -0.523438 12.21875 -0.421875 C 12.21875 -0.242188 12.113281 -0.0976562 11.90625 0.015625 C 11.78125 0.0976562 11.664062 0.140625 11.5625 0.140625 C 11.363281 0.140625 11.210938 0.0390625 11.109375 -0.15625 L 7.40625 -6.03125 L 3.265625 -6.03125 L 3.265625 -0.578125 C 3.265625 -0.191406 3.066406 0 2.671875 0 C 2.285156 0 2.09375 -0.191406 2.09375 -0.578125 L 2.09375 -13.90625 C 2.09375 -14.289062 2.285156 -14.484375 2.671875 -14.484375 L 7.9375 -14.484375 C 9.21875 -14.484375 10.1875 -14.15625 10.84375 -13.5 C 11.5 -12.84375 11.828125 -11.875 11.828125 -10.59375 L 11.828125 -9.921875 C 11.828125 -8.785156 11.566406 -7.894531 11.046875 -7.25 C 10.535156 -6.601562 9.78125 -6.210938 8.78125 -6.078125 Z M 3.265625 -7.203125 L 7.9375 -7.203125 C 8.894531 -7.203125 9.585938 -7.414062 10.015625 -7.84375 C 10.453125 -8.269531 10.671875 -8.960938 10.671875 -9.921875 L 10.671875 -10.59375 C 10.671875 -11.539062 10.453125 -12.226562 10.015625 -12.65625 C 9.585938 -13.09375 8.894531 -13.3125 7.9375 -13.3125 L 3.265625 -13.3125 Z M 3.265625 -7.203125 "/></g></g></g><g fill="#ffffff" fill-opacity="1"><g transform="translate(120.46759, 21.659484)"><g><path d="M 5.8125 -0.015625 C 4.46875 -0.015625 3.472656 -0.3125 2.828125 -0.90625 C 2.191406 -1.5 1.847656 -2.441406 1.796875 -3.734375 C 1.785156 -3.910156 1.832031 -4.054688 1.9375 -4.171875 C 2.050781 -4.285156 2.203125 -4.34375 2.390625 -4.34375 C 2.546875 -4.34375 2.675781 -4.289062 2.78125 -4.1875 C 2.894531 -4.082031 2.957031 -3.9375 2.96875 -3.75 C 3 -2.789062 3.222656 -2.125 3.640625 -1.75 C 4.066406 -1.375 4.789062 -1.1875 5.8125 -1.1875 L 9.046875 -1.1875 C 10.128906 -1.1875 10.875 -1.394531 11.28125 -1.8125 C 11.695312 -2.226562 11.90625 -2.96875 11.90625 -4.03125 C 11.90625 -5.09375 11.691406 -5.828125 11.265625 -6.234375 C 10.847656 -6.648438 10.109375 -6.859375 9.046875 -6.859375 L 5.96875 -6.859375 C 4.644531 -6.859375 3.675781 -7.164062 3.0625 -7.78125 C 2.445312 -8.394531 2.140625 -9.363281 2.140625 -10.6875 C 2.140625 -11.988281 2.445312 -12.945312 3.0625 -13.5625 C 3.675781 -14.175781 4.632812 -14.484375 5.9375 -14.484375 L 9.109375 -14.484375 C 10.367188 -14.484375 11.300781 -14.195312 11.90625 -13.625 C 12.519531 -13.0625 12.847656 -12.179688 12.890625 -10.984375 C 12.910156 -10.796875 12.863281 -10.648438 12.75 -10.546875 C 12.632812 -10.441406 12.488281 -10.390625 12.3125 -10.390625 C 12.144531 -10.390625 12.007812 -10.441406 11.90625 -10.546875 C 11.800781 -10.648438 11.738281 -10.785156 11.71875 -10.953125 C 11.707031 -11.828125 11.5 -12.4375 11.09375 -12.78125 C 10.695312 -13.132812 10.035156 -13.3125 9.109375 -13.3125 L 5.9375 -13.3125 C 4.96875 -13.3125 4.285156 -13.117188 3.890625 -12.734375 C 3.503906 -12.347656 3.3125 -11.664062 3.3125 -10.6875 C 3.3125 -9.695312 3.503906 -9.003906 3.890625 -8.609375 C 4.285156 -8.222656 4.976562 -8.03125 5.96875 -8.03125 L 9.046875 -8.03125 C 10.441406 -8.03125 11.460938 -7.707031 12.109375 -7.0625 C 12.753906 -6.414062 13.078125 -5.40625 13.078125 -4.03125 C 13.078125 -2.644531 12.753906 -1.628906 12.109375 -0.984375 C 11.460938 -0.335938 10.441406 -0.015625 9.046875 -0.015625 Z M 5.8125 -0.015625 "/></g></g></g><g fill="#ffffff" fill-opacity="1"><g transform="translate(141.099912, 21.659484)"><g/></g></g><g fill="#ffffff" fill-opacity="1"><g transform="translate(152.486037, 21.659484)"><g><path d="M 6.484375 0 C 4.847656 0 3.65625 -0.367188 2.90625 -1.109375 C 2.164062 -1.859375 1.796875 -3.050781 1.796875 -4.6875 L 1.796875 -9.8125 C 1.796875 -11.445312 2.171875 -12.640625 2.921875 -13.390625 C 3.671875 -14.140625 4.847656 -14.503906 6.453125 -14.484375 L 9.1875 -14.484375 C 10.8125 -14.484375 11.992188 -14.109375 12.734375 -13.359375 C 13.484375 -12.609375 13.859375 -11.425781 13.859375 -9.8125 L 13.859375 -4.6875 C 13.859375 -3.050781 13.484375 -1.859375 12.734375 -1.109375 C 11.992188 -0.367188 10.8125 0 9.1875 0 Z M 9.1875 -1.171875 C 10.46875 -1.171875 11.367188 -1.429688 11.890625 -1.953125 C 12.421875 -2.484375 12.6875 -3.394531 12.6875 -4.6875 L 12.6875 -9.8125 C 12.6875 -11.101562 12.421875 -12.007812 11.890625 -12.53125 C 11.367188 -13.050781 10.46875 -13.3125 9.1875 -13.3125 L 6.453125 -13.3125 C 5.585938 -13.332031 4.898438 -13.226562 4.390625 -13 C 3.890625 -12.78125 3.523438 -12.414062 3.296875 -11.90625 C 3.078125 -11.394531 2.96875 -10.695312 2.96875 -9.8125 L 2.96875 -4.6875 C 2.96875 -3.394531 3.226562 -2.484375 3.75 -1.953125 C 4.28125 -1.429688 5.191406 -1.171875 6.484375 -1.171875 Z M 9.1875 -1.171875 "/></g></g></g><g fill="#ffffff" fill-opacity="1"><g transform="translate(173.905759, 21.659484)"><g><path d="M 2.671875 0 C 2.285156 0 2.09375 -0.191406 2.09375 -0.578125 L 2.09375 -13.90625 C 2.09375 -14.289062 2.285156 -14.484375 2.671875 -14.484375 L 10.796875 -14.484375 C 11.191406 -14.484375 11.390625 -14.289062 11.390625 -13.90625 C 11.390625 -13.507812 11.191406 -13.3125 10.796875 -13.3125 L 3.265625 -13.3125 L 3.265625 -7.921875 L 8.421875 -7.921875 C 8.804688 -7.921875 9 -7.722656 9 -7.328125 C 9 -6.941406 8.804688 -6.75 8.421875 -6.75 L 3.265625 -6.75 L 3.265625 -0.578125 C 3.265625 -0.191406 3.066406 0 2.671875 0 Z M 2.671875 0 "/></g></g></g><g fill="#ffffff" fill-opacity="1"><g transform="translate(191.051079, 21.659484)"><g/></g></g><g fill="#ffffff" fill-opacity="1"><g transform="translate(202.437203, 21.659484)"><g><path d="M 12.109375 -0.765625 C 12.179688 -0.640625 12.21875 -0.523438 12.21875 -0.421875 C 12.21875 -0.242188 12.113281 -0.0976562 11.90625 0.015625 C 11.78125 0.0976562 11.664062 0.140625 11.5625 0.140625 C 11.363281 0.140625 11.210938 0.0390625 11.109375 -0.15625 L 7.40625 -6.03125 L 3.265625 -6.03125 L 3.265625 -0.578125 C 3.265625 -0.191406 3.066406 0 2.671875 0 C 2.285156 0 2.09375 -0.191406 2.09375 -0.578125 L 2.09375 -13.90625 C 2.09375 -14.289062 2.285156 -14.484375 2.671875 -14.484375 L 7.9375 -14.484375 C 9.21875 -14.484375 10.1875 -14.15625 10.84375 -13.5 C 11.5 -12.84375 11.828125 -11.875 11.828125 -10.59375 L 11.828125 -9.921875 C 11.828125 -8.785156 11.566406 -7.894531 11.046875 -7.25 C 10.535156 -6.601562 9.78125 -6.210938 8.78125 -6.078125 Z M 3.265625 -7.203125 L 7.9375 -7.203125 C 8.894531 -7.203125 9.585938 -7.414062 10.015625 -7.84375 C 10.453125 -8.269531 10.671875 -8.960938 10.671875 -9.921875 L 10.671875 -10.59375 C 10.671875 -11.539062 10.453125 -12.226562 10.015625 -12.65625 C 9.585938 -13.09375 8.894531 -13.3125 7.9375 -13.3125 L 3.265625 -13.3125 Z M 3.265625 -7.203125 "/></g></g></g><g fill="#ffffff" fill-opacity="1"><g transform="translate(221.517251, 21.659484)"><g><path d="M 2.671875 0 C 2.492188 0 2.351562 -0.0507812 2.25 -0.15625 C 2.144531 -0.257812 2.09375 -0.398438 2.09375 -0.578125 L 2.09375 -13.90625 C 2.09375 -14.082031 2.144531 -14.222656 2.25 -14.328125 C 2.351562 -14.429688 2.492188 -14.484375 2.671875 -14.484375 C 2.859375 -14.484375 3.003906 -14.429688 3.109375 -14.328125 C 3.210938 -14.222656 3.265625 -14.082031 3.265625 -13.90625 L 3.265625 -0.578125 C 3.265625 -0.398438 3.210938 -0.257812 3.109375 -0.15625 C 3.003906 -0.0507812 2.859375 0 2.671875 0 Z M 2.671875 0 "/></g></g></g><g fill="#ffffff" fill-opacity="1"><g transform="translate(232.633396, 21.659484)"><g><path d="M 5.8125 -0.015625 C 4.46875 -0.015625 3.472656 -0.3125 2.828125 -0.90625 C 2.191406 -1.5 1.847656 -2.441406 1.796875 -3.734375 C 1.785156 -3.910156 1.832031 -4.054688 1.9375 -4.171875 C 2.050781 -4.285156 2.203125 -4.34375 2.390625 -4.34375 C 2.546875 -4.34375 2.675781 -4.289062 2.78125 -4.1875 C 2.894531 -4.082031 2.957031 -3.9375 2.96875 -3.75 C 3 -2.789062 3.222656 -2.125 3.640625 -1.75 C 4.066406 -1.375 4.789062 -1.1875 5.8125 -1.1875 L 9.046875 -1.1875 C 10.128906 -1.1875 10.875 -1.394531 11.28125 -1.8125 C 11.695312 -2.226562 11.90625 -2.96875 11.90625 -4.03125 C 11.90625 -5.09375 11.691406 -5.828125 11.265625 -6.234375 C 10.847656 -6.648438 10.109375 -6.859375 9.046875 -6.859375 L 5.96875 -6.859375 C 4.644531 -6.859375 3.675781 -7.164062 3.0625 -7.78125 C 2.445312 -8.394531 2.140625 -9.363281 2.140625 -10.6875 C 2.140625 -11.988281 2.445312 -12.945312 3.0625 -13.5625 C 3.675781 -14.175781 4.632812 -14.484375 5.9375 -14.484375 L 9.109375 -14.484375 C 10.367188 -14.484375 11.300781 -14.195312 11.90625 -13.625 C 12.519531 -13.0625 12.847656 -12.179688 12.890625 -10.984375 C 12.910156 -10.796875 12.863281 -10.648438 12.75 -10.546875 C 12.632812 -10.441406 12.488281 -10.390625 12.3125 -10.390625 C 12.144531 -10.390625 12.007812 -10.441406 11.90625 -10.546875 C 11.800781 -10.648438 11.738281 -10.785156 11.71875 -10.953125 C 11.707031 -11.828125 11.5 -12.4375 11.09375 -12.78125 C 10.695312 -13.132812 10.035156 -13.3125 9.109375 -13.3125 L 5.9375 -13.3125 C 4.96875 -13.3125 4.285156 -13.117188 3.890625 -12.734375 C 3.503906 -12.347656 3.3125 -11.664062 3.3125 -10.6875 C 3.3125 -9.695312 3.503906 -9.003906 3.890625 -8.609375 C 4.285156 -8.222656 4.976562 -8.03125 5.96875 -8.03125 L 9.046875 -8.03125 C 10.441406 -8.03125 11.460938 -7.707031 12.109375 -7.0625 C 12.753906 -6.414062 13.078125 -5.40625 13.078125 -4.03125 C 13.078125 -2.644531 12.753906 -1.628906 12.109375 -0.984375 C 11.460938 -0.335938 10.441406 -0.015625 9.046875 -0.015625 Z M 5.8125 -0.015625 "/></g></g></g><g fill="#ffffff" fill-opacity="1"><g transform="translate(253.26573, 21.659484)"><g><path d="M 11.703125 -0.921875 C 11.804688 -0.804688 11.859375 -0.679688 11.859375 -0.546875 C 11.859375 -0.378906 11.773438 -0.226562 11.609375 -0.09375 C 11.492188 0.0078125 11.367188 0.0625 11.234375 0.0625 C 11.078125 0.0625 10.929688 -0.0195312 10.796875 -0.1875 L 4.953125 -7.453125 L 3.265625 -5.71875 L 3.265625 -0.578125 C 3.265625 -0.191406 3.066406 0 2.671875 0 C 2.285156 0 2.09375 -0.191406 2.09375 -0.578125 L 2.09375 -13.90625 C 2.09375 -14.289062 2.285156 -14.484375 2.671875 -14.484375 C 3.066406 -14.484375 3.265625 -14.289062 3.265625 -13.90625 L 3.265625 -7.40625 L 9.96875 -14.28125 C 10.101562 -14.414062 10.238281 -14.484375 10.375 -14.484375 C 10.507812 -14.484375 10.644531 -14.414062 10.78125 -14.28125 C 10.914062 -14.144531 10.984375 -14.003906 10.984375 -13.859375 C 10.984375 -13.742188 10.921875 -13.609375 10.796875 -13.453125 L 5.765625 -8.28125 Z M 11.703125 -0.921875 "/></g></g></g></g></g></g></g></g></svg>
